<?xml version="1.0" encoding="utf-8"?>
<!-- Generator: Adobe Illustrator 27.5.0, SVG Export Plug-In . SVG Version: 6.00 Build 0)  -->
<svg version="1.1" id="Ñëîé_1" xmlns="http://www.w3.org/2000/svg" xmlns:xlink="http://www.w3.org/1999/xlink" x="0px" y="0px"
	 viewBox="0 0 2400 2000" style="enable-background:new 0 0 2400 2000;" xml:space="preserve">
<rect id="_x31_0" style="fill:#FFFFFF;" width="2400" height="2000"/>
<g>
	<g id="_x39_">
		<path style="fill:#D4E8FF;" d="M561.503,1580.547c0,0-232.211-600.918-65.104-734.727
			c111.695-89.439,230.086,107.724,371.394,3.421c125.804-92.859-49.589-326.784,160.318-387.979
			c220.632-64.321,401.386,456.581,586.512,384.558c224.639-87.395,448.095,90.018,254.988,735.874L561.503,1580.547z"/>
		<path style="fill:#DCE6FF;" d="M379.814,1529.706c-3.898-11.945-7.755-24.322-11.463-36.787l9.139-2.718
			c3.684,12.384,7.516,24.681,11.388,36.546L379.814,1529.706z M2014.725,1514.28l-9.462-1.169
			c1.571-12.715,3.063-25.521,4.435-38.061l9.478,1.037C2017.799,1488.672,2016.302,1501.522,2014.725,1514.28z M357.826,1455.865
			c-3.337-12.319-6.573-24.867-9.619-37.295l9.26-2.269c3.028,12.354,6.245,24.826,9.562,37.072L357.826,1455.865z
			 M2023.078,1437.832l-9.491-0.897c1.206-12.766,2.323-25.608,3.32-38.168l9.504,0.753
			C2025.412,1412.129,2024.29,1425.018,2023.078,1437.832z M339.494,1381.055c-2.754-12.551-5.374-25.241-7.788-37.719l9.361-1.81
			c2.399,12.401,5.003,25.013,7.74,37.486L339.494,1381.055z M2029.148,1361.156l-9.516-0.602
			c0.807-12.757,1.515-25.626,2.103-38.247l9.524,0.444C2030.669,1335.425,2029.959,1348.346,2029.148,1361.156z M324.874,1305.429
			c-2.12-12.704-4.083-25.515-5.834-38.077l9.443-1.316c1.74,12.478,3.69,25.203,5.795,37.824L324.874,1305.429z M2032.715,1284.311
			l-9.531-0.277c0.372-12.814,0.628-25.696,0.762-38.289l9.534,0.101C2033.346,1258.497,2033.089,1271.438,2032.715,1284.311z
			 M314.255,1229.12c-1.422-12.832-2.659-25.738-3.678-38.359l9.503-0.767c1.012,12.527,2.239,25.338,3.65,38.076L314.255,1229.12z
			 M2023.986,1207.452c-0.112-12.824-0.356-25.702-0.724-38.278l9.531-0.279c0.369,12.641,0.615,25.584,0.728,38.473
			L2023.986,1207.452z M308.078,1152.303c-0.632-12.908-1.052-25.866-1.247-38.518l9.533-0.147
			c0.193,12.545,0.609,25.397,1.236,38.199L308.078,1152.303z M2021.729,1130.931c-0.654-12.807-1.46-25.657-2.392-38.193
			l9.507-0.707c0.938,12.609,1.747,25.534,2.406,38.413L2021.729,1130.931z M316.455,1075.425l-9.533-0.196
			c0.266-12.942,0.777-25.905,1.522-38.528l9.518,0.561C317.224,1049.764,316.717,1062.603,316.455,1075.425z M2016.03,1054.621
			c-1.274-12.804-2.716-25.593-4.286-38.012l9.459-1.196c1.581,12.502,3.032,25.376,4.315,38.264L2016.03,1054.621z M320.986,999.2
			l-9.487-0.953c1.295-12.893,2.874-25.78,4.693-38.302l9.435,1.371C323.828,973.7,322.266,986.446,320.986,999.2z
			 M2006.406,978.743c-1.984-12.724-4.161-25.399-6.472-37.675l9.369-1.764c2.331,12.373,4.525,25.148,6.524,37.97L2006.406,978.743
			z M878.797,977.398c-13.248-2.089-22.831-8.12-36.105-18.534l6.026-7.388c11.629,9.099,20.028,14.558,31.095,16.442
			L878.797,977.398z M911.876,954.714l-8.491-4.336c4.365-8.547,8.223-20.407,11.468-35.251l9.314,2.036
			C920.7,933.026,916.679,945.309,911.876,954.714z M814.709,931.519c-7.595-8.458-15.712-18.193-24.814-29.759l7.492-5.896
			c8.974,11.403,16.96,20.982,24.416,29.285L814.709,931.519z M331.996,923.7l-9.36-1.816c2.47-12.726,5.265-25.415,8.307-37.715
			l9.256,2.289C337.194,898.602,334.435,911.132,331.996,923.7z M1992.227,903.642c-2.823-12.593-5.869-25.076-9.053-37.105
			l9.218-2.439c3.214,12.145,6.288,24.748,9.137,37.459L1992.227,903.642z M930.583,878.792l-9.456-1.217
			c1.464-11.381,2.777-23.843,4.012-38.1l9.499,0.823C933.39,854.688,932.064,867.279,930.583,878.792z M766.543,871.042
			c-7.75-10.466-15.789-21.53-22.715-31.078l7.718-5.599c6.913,9.53,14.935,20.571,22.66,31.003L766.543,871.042z M1464.576,870.258
			c-7.425,0-14.71-2.218-21.653-6.593l5.084-8.067c10.429,6.584,20.689,6.598,31.767,1.347l4.102,8.606
			C1477.325,868.675,1470.832,870.258,1464.576,870.258z M350.34,849.715l-9.118-2.788c3.788-12.388,7.944-24.709,12.353-36.62
			l8.941,3.309C358.171,825.357,354.074,837.502,350.34,849.715z M1515.053,840.626l-7.005-6.468
			c7.229-7.829,14.978-17.487,23.691-29.526l7.724,5.591C1530.526,822.571,1522.542,832.516,1515.053,840.626z M1415.813,834.07
			c-6.17-9.519-12.285-20.728-18.693-34.269l8.618-4.079c6.226,13.154,12.138,24.001,18.076,33.161L1415.813,834.07z
			 M1972.641,829.848c-3.84-12.353-7.939-24.514-12.181-36.144l8.957-3.267c4.294,11.774,8.442,24.081,12.329,36.581
			L1972.641,829.848z M721.233,808.88c-8.723-11.921-15.993-21.708-22.878-30.8l7.601-5.756
			c6.917,9.134,14.217,18.961,22.972,30.926L721.233,808.88z M937.505,801.794l-9.515-0.616c0.723-11.171,1.458-23.725,2.248-38.383
			l9.521,0.513C938.968,778.001,938.23,790.589,937.505,801.794z M376.808,778.324l-8.723-3.85
			c5.234-11.854,10.811-23.494,16.738-34.877l8.455,4.408C387.446,755.205,381.959,766.658,376.808,778.324z M1561.306,778.321
			l-7.967-5.239c6.776-10.301,13.774-21.215,20.858-32.24l8.021,5.154C1575.117,757.051,1568.11,767.974,1561.306,778.321z
			 M1381.772,764.221c-4.319-10.832-8.781-22.65-13.643-36.13l8.968-3.235c4.826,13.379,9.252,25.101,13.531,35.834
			L1381.772,764.221z M1946.434,758.275c-5.126-11.94-10.548-23.538-16.116-34.473l8.497-4.326
			c5.661,11.119,11.173,22.908,16.38,35.038L1946.434,758.275z M674.814,747.869c-8.651-10.739-16.704-20.296-24.619-29.22
			l7.133-6.327c8.015,9.037,16.164,18.707,24.911,29.565L674.814,747.869z M941.743,724.849l-9.523-0.48
			c0.642-12.738,1.28-25.482,1.961-38.45l9.521,0.5C943.023,699.38,942.384,712.117,941.743,724.849z M1603.121,713.796
			l-7.954-5.257c7.966-12.053,15.091-22.48,21.782-31.875l7.766,5.531C1618.089,691.498,1611.025,701.835,1603.121,713.796z
			 M412.186,711.105l-8.036-5.131c7.492-11.734,15.217-22.331,22.961-31.498l7.284,6.152
			C426.923,689.473,419.452,699.727,412.186,711.105z M1355.399,691.708c-4.373-12.813-8.662-25.634-12.282-36.485l9.044-3.017
			c3.615,10.836,7.898,23.636,12.261,36.422L1355.399,691.708z M623.98,691.041c-9.745-9.488-19.327-17.869-28.479-24.911
			l5.814-7.556c9.444,7.267,19.307,15.892,29.316,25.636L623.98,691.041z M1911.806,690.633
			c-6.832-11.148-13.995-21.692-21.291-31.338l7.604-5.751c7.483,9.893,14.823,20.696,21.816,32.108L1911.806,690.633z
			 M461.137,654.689l-5.783-7.58c11.386-8.685,23.236-14.949,35.221-18.617l2.79,9.117
			C482.464,640.945,471.621,646.691,461.137,654.689z M1647.711,651.773l-7.407-6.003c8.941-11.033,17.414-20.526,25.902-29.022
			l6.745,6.738C1664.699,631.747,1656.443,641,1647.711,651.773z M945.839,648.024l-9.517-0.567
			c0.826-13.859,1.645-26.444,2.506-38.475l9.51,0.68C947.48,621.655,946.663,634.204,945.839,648.024z M563.979,646.028
			c-11.897-5.92-23.599-9.699-34.781-11.231l1.294-9.446c12.211,1.674,24.907,5.758,37.735,12.142L563.979,646.028z
			 M1865.989,630.616c-9.179-9.404-18.683-17.705-28.247-24.671l5.614-7.707c9.995,7.28,19.906,15.933,29.457,25.718
			L1865.989,630.616z M1330.955,618.74c-4.743-14.186-8.652-25.752-12.301-36.401l9.018-3.091
			c3.658,10.672,7.574,22.26,12.324,36.468L1330.955,618.74z M1701.485,599.148l-5.465-7.812
			c11.726-8.203,23.569-14.279,35.202-18.057l2.944,9.068C1723.434,585.834,1712.438,591.487,1701.485,599.148z M1805.517,587.468
			c-11.808-4.981-23.761-8.063-35.526-9.162l0.886-9.493c12.737,1.19,25.638,4.511,38.345,9.87L1805.517,587.468z M951.388,571.384
			l-9.497-0.844c1.188-13.377,2.481-26.296,3.842-38.399l9.475,1.066C953.855,545.237,952.57,558.081,951.388,571.384z
			 M1305.969,546.076c-4.607-12.859-8.948-24.614-13.273-35.936l8.907-3.402c4.348,11.384,8.712,23.199,13.342,36.122
			L1305.969,546.076z M960.062,495.19l-9.437-1.363c1.928-13.349,4.048-26.186,6.301-38.155l9.37,1.762
			C964.069,469.271,961.971,481.974,960.062,495.19z M1278.531,474.542c-5.123-12.323-10.287-24.113-15.349-35.043l8.652-4.007
			c5.115,11.043,10.331,22.951,15.502,35.39L1278.531,474.542z M974.392,420.124l-9.25-2.311
			c3.326-13.314,6.992-25.854,10.896-37.274l9.021,3.085C981.242,394.79,977.653,407.07,974.392,420.124z M1246.25,405.282
			c-6.271-11.81-12.677-22.897-19.039-32.953l8.057-5.098c6.491,10.259,13.019,21.557,19.404,33.579L1246.25,405.282z
			 M999.379,348.693l-8.55-4.22c6.261-12.685,13.203-23.9,20.635-33.336l7.49,5.9
			C1011.932,325.952,1005.346,336.603,999.379,348.693z M1205.358,341.406c-8.331-10.444-16.93-19.695-25.557-27.497l6.396-7.072
			c9.009,8.147,17.963,17.777,26.615,28.623L1205.358,341.406z M1045.554,292.325l-5.14-8.03
			c11.295-7.229,23.738-11.929,36.986-13.97l1.451,9.423C1066.925,281.586,1055.722,285.817,1045.554,292.325z M1149.719,292.32
			c-11.106-5.987-22.676-10.081-34.386-12.166l1.672-9.387c12.71,2.264,25.24,6.691,37.239,13.16L1149.719,292.32z"/>
		<path style="fill:#EEF7FF;" d="M2075.148,1384.684c-79.12-11.727-66.209,94.224-178.988,94.224
			c-103.114,0-136.102-403.484-211.126-288.145c-384.619,591.295-161.278-251.459-467.159-262.168
			c-138.311-4.842-230.474,142.636-264.461,403.754c-49.266,236.059-163.519-180.046-281.098-141.358
			c-74.727,24.588-66.169,287.917-169.283,287.917c-112.779,0-99.868-105.952-178.988-94.224
			c-85.185,12.626-110.629,200.159-110.629,200.159h1972.362C2185.777,1584.843,2160.333,1397.311,2075.148,1384.684z"/>
		<path style="fill:#DCE6FF;" d="M2005.083,1499.373c-72.788-5.008-60.91,40.235-164.665,40.235
			c-94.862,0-92.256-101.395-155.736-122.944c-116.903-39.684-213.281,161.162-258.603,60.361
			c-86.081-267.467-337.141-401.6-452.964,0c-45.323,100.8-151.311-79.063-258.603-60.361
			c-66.043,11.512-60.874,122.944-155.737,122.944c-103.754,0-91.877-45.243-164.665-40.235
			c-78.368,5.392-101.776,85.47-101.776,85.47h1814.525C2106.859,1584.843,2083.451,1504.764,2005.083,1499.373z"/>
		<path style="fill:#CFDDF9;" d="M213.415,1584.843c0,0-12.371,50.457,44.956,63.09c78.412,17.279,538.68,62.678,426.865,97.177
			c-63.12,19.474,32.222,45.919,339.662,55.656c307.44,9.737,834.983-28.416,657.578-84.868
			c-177.405-56.452,547.328-13.632,503.3-131.055H213.415z"/>
	</g>
	<g id="_x38_">
		<path style="fill:#CE3932;" d="M1199.006,849.866c0,0,25.722-171.582,124.244-294.456c0,0,5.535,55.349,14.391,86.344
			c0,0,46.493-32.102,85.237-43.172c0,0-38.744,145.014-157.191,267.889L1199.006,849.866z"/>
		<path style="fill:#CE3932;" d="M1242.363,855.475c0,0-21.878-211.738-77.227-356.752c0,0-22.14,57.563-29.888,81.917
			l-76.381-55.349c0,0,52.028,168.261,108.484,340.95L1242.363,855.475z"/>
		<path style="fill:#CE3932;" d="M1473.547,782.453c0,0,71.191,18.429,75.342,75.715c3.185,43.958-114.573,29.4-114.573,29.4
			s89.665,22.424,136.989,2.324c47.323-20.101,54.796-37.535,37.361-75.726c-17.435-38.191-50.644-102.949-94.647-88.005
			C1470.017,741.106,1473.547,782.453,1473.547,782.453z"/>
		<rect x="796.936" y="971.07" style="fill:#FCB4B4;" width="841.379" height="644.279"/>
		<rect x="796.936" y="971.076" style="fill:#F49F9F;" width="841.375" height="98.756"/>
		<rect x="769.299" y="916.885" style="fill:#F9D4D4;" width="896.654" height="109.591"/>
		<path style="fill:#EB5648;" d="M1309.782,916.885h-184.316l0,0c0-37.013,30.005-67.018,67.018-67.018h50.28
			C1279.776,849.867,1309.782,879.872,1309.782,916.885L1309.782,916.885z"/>
		<path style="fill:#EB5648;" d="M1436.807,679.392c-139.479,25.461-219.182,170.475-219.182,170.475l79.703,67.018
			c216.691,0,292.243,0,325.606-43.772C1656.467,829.12,1576.287,653.931,1436.807,679.392z M1585.395,867.271
			c-44.545,26.658-161.315,26.598-266.481,2.521c0,0,132.251-109.104,229.145-96.307
			C1592.061,779.297,1614.478,849.867,1585.395,867.271z"/>
		<path style="fill:#CE3932;" d="M964.763,782.453c0,0-71.191,18.429-75.342,75.715c-3.185,43.958,114.572,29.4,114.572,29.4
			s-89.665,22.424-136.989,2.324c-47.323-20.101-54.796-37.535-37.361-75.726c17.435-38.191,50.644-102.949,94.647-88.005
			C968.293,741.106,964.763,782.453,964.763,782.453z"/>
		<path style="fill:#EB5648;" d="M815.376,873.113c33.364,43.772,108.915,43.772,325.607,43.772l79.703-67.018
			c0,0-79.703-145.014-219.182-170.475S781.843,829.12,815.376,873.113z M890.251,773.485
			c96.894-12.797,229.145,96.307,229.145,96.307c-105.166,24.077-221.936,24.137-266.481-2.521
			C823.832,849.867,846.249,779.297,890.251,773.485z"/>
		<path style="fill:#F4D4BE;" d="M885.97,1275.14c0,45.847-37.163,83.011-83.011,83.011c-2.02,0-4.028-0.074-6.023-0.222v-165.566
			c1.995-0.148,4.003-0.222,6.023-0.222C848.807,1192.141,885.97,1229.304,885.97,1275.14z"/>
		
			<ellipse transform="matrix(0.7071 -0.7071 0.7071 0.7071 -528.4296 1060.5615)" style="fill:#F4D4BE;" cx="1015.996" cy="1168.152" rx="83.005" ry="83.005"/>
		
			<ellipse transform="matrix(0.7071 -0.7071 0.7071 0.7071 -711.8699 1136.545)" style="fill:#F4D4BE;" cx="1015.996" cy="1427.576" rx="83.005" ry="83.005"/>
		<path style="fill:#F4D4BE;" d="M880.156,1592.105c0,8.068-1.145,15.866-3.301,23.244h-79.919v-106.255h0.209
			C842.993,1509.095,880.156,1546.258,880.156,1592.105z"/>
		<path style="fill:#F4D4BE;" d="M1252.935,1615.35h-166.009c0-45.848,37.163-83.011,82.998-83.011
			C1215.771,1532.339,1252.935,1569.502,1252.935,1615.35z"/>
		<circle style="fill:#F4D4BE;" cx="1278.575" cy="1317.881" r="83.006"/>
		
			<ellipse transform="matrix(0.7071 -0.7071 0.7071 0.7071 -399.8081 1379.3634)" style="fill:#F4D4BE;" cx="1465.135" cy="1172.293" rx="83.005" ry="83.005"/>
		
			<ellipse transform="matrix(0.7071 -0.7071 0.7071 0.7071 -645.0318 1463.9175)" style="fill:#F4D4BE;" cx="1444.589" cy="1510.581" rx="83.005" ry="83.005"/>
		<path style="fill:#F4D4BE;" d="M1638.315,1273.846v163.324c-4.853,0.887-9.854,1.343-14.966,1.343
			c-45.847,0-83.011-37.163-83.011-82.999c0-45.847,37.163-83.011,83.011-83.011
			C1628.46,1272.504,1633.462,1272.959,1638.315,1273.846z"/>
		<rect x="1137.92" y="903.001" style="fill:#EB5648;" width="159.408" height="712.344"/>
	</g>
	<g id="_x37_">
		<path style="fill:#8E4A35;" d="M658.652,1131.36c0,0,24.237-2.425,48.386-8.107c0,0,11.014,7.052,17.037,24.323
			c15.324,43.946,51.902,24.168,58.881,59.268c6.838,34.39-39.953,73.473-95.684,48.062
			C687.271,1254.907,603.024,1218.188,658.652,1131.36z"/>
		<path style="fill:#F99370;" d="M696.305,1211.77c11.256,4.496,19.76,14.603,26.142,24.101
			c13.895,20.209,18.826,43.994,26.658,66.603c10.703,26.135,29.095,50.896,48.118,72.2c6.382,6.726-2.991,17.5-10.509,12.176
			c-27.207-18.296-50.658-40.305-68.367-68.617c-13.244-21.878-19.732-49.291-39.291-66.646c0.938,0.501,0.868,0.453,2.147,0.96
			C654.579,1242.546,669.608,1202.015,696.305,1211.77z"/>
		<path style="fill:#F99370;" d="M817.226,1379.541c-0.761,3.067-7.651,0.105-10.349,1.119c3.167,3.967,7.507,7.049,7.509,7.083
			c5.702,2.651,11.538,4.988,17.481,7.063c6.19,7.285-16.368-1.087-18.728-1.504c-0.015,0.028-0.032,0.054-0.047,0.082
			c5.261,3.961,10.75,7.641,16.511,10.835c4.698,8.884-17.813-5.699-20.032-6.839c-0.012,0.01-0.025,0.019-0.037,0.029
			c4.318,4.563,9.197,8.601,14.441,12.068c3.938,9.372-17.781-7.216-19.533-9.034c-0.023,0.01-0.045,0.02-0.068,0.031
			c2.869,4.078,6.259,7.789,9.809,11.297c2.416,9.256-14.332-7.764-15.758-9.604c-1.618-0.776-7.828-7.604-13.359-17.383
			c-1.812-3.205,5.604-10.351,9.22-10.364c3.391-0.012,7.851,1.209,9.474,1.604C807.05,1376.281,816.428,1375.822,817.226,1379.541z
			"/>
		<path style="fill:#10325B;" d="M697.023,1305.269c3.512,4.785,7.572,10.039,11.667,15.143c0.115,0.142,0.23,0.283,0.345,0.424
			c0.469,0.584,0.938,1.159,1.407,1.734c0.124,0.168,0.257,0.336,0.398,0.495c0.805,0.982,1.61,1.955,2.397,2.919
			c0.832,1.008,1.663,1.999,2.477,2.963c1.07,1.274,2.079,2.45,2.99,3.512c0.858,0.973,1.928,1.61,3.06,1.937
			c2.627,0.734,5.608-0.23,7.191-2.777c6.493-10.437,17.673-20.079,26.439-26.315c2.945-2.088,4.635-5.573,4.272-9.164
			c-0.84-8.058-5.334-12.923-13.754-28.279c-11.234-24.059-26.076-49.702-48.304-55.699
			C704.214,1232.86,681.782,1284.606,697.023,1305.269z"/>
		<path style="fill:#1D3F70;" d="M708.69,1320.412c0.115,0.142,0.23,0.283,0.345,0.424c0.469,0.584,0.938,1.159,1.407,1.734
			c0.124,0.168,0.257,0.336,0.398,0.495c0.823,1.017,1.619,1.99,2.397,2.919c0.858,1.044,1.681,2.026,2.477,2.963
			c1.07,1.274,2.079,2.45,2.99,3.512c0.858,0.973,1.928,1.61,3.06,1.937c-1.716-8.323-1.247-18.275,2.388-27.642
			c4.856-12.507,8.492-21.618,7.642-28.827c-0.849-7.209-7.642-19.185-7.642-19.185L708.69,1320.412z"/>
		<path style="fill:#F99370;" d="M650.846,1252.986c-26.853-10.115-55.193-23.084-71.894-47.82
			c-22.694-38.685,4.739-83.037,33.292-110.011c4.211-4.473,10.037-9.409,15.55-3.632c5.87,6.868-2.943,13.224-6.016,19.081
			c-36.494,60.267-23.843,82.149,41.528,100.723C690.517,1219.603,678.113,1261.013,650.846,1252.986z"/>
		<path style="fill:#F99370;" d="M646.214,1088.382c-1.88-2.54-7.106,2.839-9.986,2.938c1.403-4.879,4.228-9.39,4.217-9.422
			c4.249-4.636,8.74-9.034,13.432-13.231c2.921-9.103-14.698,7.284-16.717,8.575c-0.025-0.02-0.05-0.038-0.075-0.057
			c3.339-5.677,6.995-11.181,11.09-16.341c0.93-10.006-14.263,12.098-15.874,14.002c-0.015-0.004-0.03-0.009-0.045-0.013
			c2.236-5.871,5.192-11.472,8.705-16.686c0.041-10.166-13.651,13.486-14.571,15.838c-0.025-0.001-0.05-0.001-0.075-0.002
			c1.085-4.867,2.791-9.594,4.724-14.196c-1.321-9.474-10.255,12.669-10.866,14.916c-1.197,1.338-4.311,10.026-5.666,21.178
			c-0.444,3.655,9.147,7.408,12.491,6.032c3.136-1.29,6.786-4.129,8.133-5.117C638.068,1095.296,646.904,1092.121,646.214,1088.382z
			"/>
		<path style="fill:#10325B;" d="M612.826,1094.598c0,0,3.001,7.001,14.006,8.901c0,0-0.5,2.7-2.901,3.901
			c0,0-9.104-0.2-14.506-9.601C609.425,1097.799,610.092,1095.665,612.826,1094.598z"/>
		<path style="fill:#10325B;" d="M564.487,1220.5c4.711,19.236,52.799,20.826,63.619,31.324
			c17.298-3.844,40.565-12.82,47.446-45.019c-6.86-4.975-14.901-8.315-29.126-9.973c-23.132-2.309-27.888-24.912-43.469-24.034
			C591.949,1176.815,567.736,1200.52,564.487,1220.5z"/>
		<path style="fill:#1D3F70;" d="M582.307,1235.504c14.244,6.624,39.176,9.927,45.8,16.32c0,0,3.274-0.448,8.123-2.005
			l-1.444-11.074c0,0-6.212,5.453-20.293,2.608C600.405,1238.515,582.307,1235.504,582.307,1235.504z"/>
		<path style="fill:#F99370;" d="M698.439,1204.994l-1.01,7.275c-3.73,12.132-19.862,2.629-22.533-2.181
			c0,0,1.46-6.892,1.739-10.124L698.439,1204.994z"/>
		<path style="fill:#F99370;" d="M482.182,1580.705l-8.575-52.804c2.654-1.359,15.847-0.829,20.463-2.101
			c2.952-0.283,40.047-10.61,43.91-11.558l4.923,30.316l-39.808,1.439c-4.722,0.171-8.646,3.67-9.381,8.336
			c-2.131,10.342,1.479,21.165-5.166,28.646C486.271,1584.988,482.668,1583.702,482.182,1580.705z"/>
		<path style="fill:#1D3F70;" d="M478.425,1525.474c-1.749,0.505-3.401,1.278-4.819,2.426l8.645,53.239
			c0.42,2.589,3.273,4.049,5.577,2.794c5.381-2.948,12.527-11.31,9.826-36.059c0,0-3.841-7.946-3.585-22.075
			C494.069,1525.8,485.512,1523.418,478.425,1525.474z"/>
		<path style="fill:#E8C0A6;" d="M496.197,1573.952c-1.933-0.54-1.747-3.539-8.199-5.117c-0.588-0.134-0.957-0.719-0.823-1.308
			C489.559,1564.169,500.884,1573.739,496.197,1573.952z"/>
		<path style="fill:#E8C0A6;" d="M497.872,1566.047c-0.333,0-0.661-0.151-0.876-0.438l0,0c-0.034-0.045-3.434-4.488-9.256-5.303
			c-1.406-0.173-1.097-2.385,0.303-2.164c6.751,0.945,10.546,5.947,10.704,6.16C499.294,1564.988,498.738,1566.073,497.872,1566.047
			z"/>
		<path style="fill:#E8C0A6;" d="M498.194,1556.177c-1.513-0.269-3.663-4.259-10.867-5.606c-1.395-0.221-1.019-2.422,0.378-2.152
			C494.927,1549.972,501.829,1554.986,498.194,1556.177z"/>
		<path style="fill:#395B96;" d="M487.911,1583.888l-9.486-58.414c-1.749,0.505-3.401,1.278-4.819,2.426l8.645,53.239
			C482.674,1583.765,485.608,1585.219,487.911,1583.888z"/>
		<path style="fill:#F99370;" d="M717.921,1670.488l-53.43-0.586c-0.882-2.857,1.891-15.743,1.43-20.515
			c-0.012-2.007-0.527-12.998-0.712-15.001l3.999-30.147l23.553,0.258l-5.391,39.455c-0.639,4.68,2.138,9.144,6.611,10.665
			c9.817,3.855,21.024,2.178,27.308,9.922C722.921,1667.141,720.992,1670.522,717.921,1670.488z"/>
		<path style="fill:#1D3F70;" d="M662.923,1664.741c0.198,1.809,0.678,3.569,1.567,5.161l53.95,0.592
			c2.623,0.029,4.55-2.531,3.708-5.015c-1.985-5.804-9.004-14.273-33.858-15.846c0,0-8.488,2.424-22.37-0.245
			C665.92,1649.388,662.109,1657.409,662.923,1664.741z"/>
		<path style="fill:#E8C0A6;" d="M706.287,1663.401c-0.758,0.014-1.319-0.815-1.007-1.515c2.409-5.76,6.809-7.493,6.995-7.563
			c1.315-0.523,2.111,1.551,0.783,2.04c-0.166,0.066-3.736,1.523-5.763,6.366C707.12,1663.149,706.714,1663.401,706.287,1663.401z"
			/>
		<path style="fill:#E8C0A6;" d="M697.804,1662.282c-0.724,0.01-1.277-0.738-1.04-1.427c1.999-7.253,11.49-12.606,8.891-7.54
			c-0.063,0.032-5.013,2.621-6.811,8.208C698.696,1661.988,698.266,1662.282,697.804,1662.282z"/>
		<path style="fill:#E8C0A6;" d="M688.152,1660.988c-0.738,0.011-1.295-0.768-1.028-1.463c2.364-6.559,7.55-9.966,7.77-10.109
			c1.177-0.782,2.39,1.08,1.187,1.836c-0.07,0.046-4.801,3.186-6.901,9.014C689.02,1660.711,688.6,1660.988,688.152,1660.988z"/>
		<path style="fill:#395B96;" d="M722.117,1665.391l-59.194-0.65c0.198,1.809,0.678,3.569,1.567,5.161l53.95,0.592
			C721.1,1670.527,723.035,1667.886,722.117,1665.391z"/>
		<path style="fill:#E57D61;" d="M677.194,1176.965c0.009,0.39,0.03,0.787,0.075,1.173c0.554-0.279,0.331,13.811-0.861,23.914
			c8.981,5.448,19.793,4.812,21.778,4.645c1.734-12.771,1.948-24.569,0.942-32.113
			C696.755,1161.737,676.757,1163.93,677.194,1176.965z"/>
		<path style="fill:#F99370;" d="M662.663,1169.246c1.749,9.936,5.274,21.113,13.236,27.586h0.013
			c3.217,2.594,7.115,4.219,11.231,4.967c23.117,6.322,50.309-21.478,31.764-40.66c-6.689-6.002-8.244-16.785-13.593-22.774
			c-7.813-10.991-24.595-10.172-33.532-0.988C663.706,1145.68,661.065,1157.002,662.663,1169.246z"/>
		<path style="fill:#C16256;" d="M700.594,1162.555c0.887-1.744-1.874-3.096-2.709-1.327
			C696.998,1162.972,699.759,1164.324,700.594,1162.555z"/>
		<path style="fill:#C16256;" d="M713.241,1160.241c0.887-1.744-1.874-3.096-2.708-1.327
			C709.646,1160.659,712.406,1162.01,713.241,1160.241z"/>
		<path style="fill:#EB5648;" d="M502.814,1520.864c0,0,0,15.05,4.099,29.396c102.567-8.548,145.143-21.897,153.154-121.427
			c0,0,35.045,67.026,1.579,194.481h-0.009c-0.966,3.737-1.975,7.415-3.053,11.161c0,0,13.162,10.762,31.356,7.235
			c22.681-43.108,72.731-146.861,29.513-282.603c-25.758-29.799-77.601-32.83-110.522-17.874
			C582.436,1409.366,628.952,1493.188,502.814,1520.864z"/>
		<path style="fill:#C16256;" d="M709.508,1173.356c-0.928,0.02-2.966,0.4-2.931-0.862c0.092-0.302,0.414-0.472,0.712-0.38
			c1.923,0.585,4.618-0.414,4.975-1.284c0.126-0.307-0.289-0.602-0.659-0.796c-3.222-1.561-7.495-10.497-4.542-8.445
			c0.022,0.06,2.202,5.934,5.07,7.434C715.375,1171.193,712.055,1172.955,709.508,1173.356z"/>
		<path style="fill:#E57D61;" d="M662.663,1169.246c1.749,9.936,5.274,21.113,13.236,27.586h0.013
			c-4.439-5.349-7.333-17.42-7.333-17.42l1.984-5.416c34.43-11.66,31.065-39.389,31.065-39.389
			C679.327,1119.099,657.788,1146.503,662.663,1169.246z"/>
		<path style="fill:#8E4A35;" d="M697.916,1132.19c0,0,3.177,27.345-27.617,39.034l-11.198-5.97
			C647.959,1144.15,667.137,1112.669,697.916,1132.19z"/>
		<path style="fill:#F99370;" d="M656.408,1174.369c2.412,11.231,16.556,8.03,13.891-3.146
			C667.888,1159.992,653.744,1163.194,656.408,1174.369z"/>
		<path style="fill:#C16256;" d="M660.102,1176.651c-2.379-2.426-1.525-7.384-0.31-8.253c2.231-1.822,6.271-0.911,5.988,0.232
			c-0.702,1.141-3.022-1.235-5.202,0.596C658.343,1170.925,661.434,1175.685,660.102,1176.651z"/>
		<path style="fill:#C16256;" d="M665.418,1175.777c-1.168-0.046-1.656-4.281-6.145-4.67c-0.315-0.016-0.557-0.285-0.54-0.6
			C661.845,1168.094,667.553,1175.983,665.418,1175.777z"/>
		<path style="fill:#F4D4BE;" d="M662.721,1179.5c0,1.662,2.61,1.624,2.562-0.037C665.284,1177.801,662.673,1177.839,662.721,1179.5
			z"/>
		<path style="fill:#CE3932;" d="M502.814,1520.864c0,0,0,15.05,4.099,29.396c0,0,4.622-0.323,12.097-1.093
			c-4.698-11.513-4.717-31.345-4.717-31.345C510.631,1518.877,506.808,1519.895,502.814,1520.864z"/>
		<path style="fill:#CE3932;" d="M658.583,1634.476c0,0,13.162,10.762,31.356,7.235c0,0,1.658-3.238,4.872-9.437
			c0,0-21.477,1.964-33.166-8.96h-0.009C660.685,1626.984,659.668,1630.702,658.583,1634.476z"/>
		<path style="fill:#CE3932;" d="M661.636,1623.315c-0.333,1.293-0.675,2.586-1.027,3.888h6.515
			c22.788-68.265,26.768-180.693-7.057-198.369c0,0,35.045,67.026,1.579,194.481H661.636z"/>
		<path style="fill:#CE3932;" d="M682.983,1637.865c17.894-40.793,29.83-80.619,35.477-118.37
			c4.522-30.229,5.045-59.204,1.554-86.123c-5.954-45.92-21.791-70.317-21.95-70.558l-2.078,1.372
			c0.156,0.238,15.726,24.272,21.582,69.685c5.408,41.936,3.401,111.195-36.866,202.994L682.983,1637.865z"/>
		<path style="fill:#CE3932;" d="M511.031,1545.227c36.458-3.51,63.653-9.774,83.14-19.15c19.468-9.368,32.114-21.9,39.799-39.442
			c19.187-43.796,11.875-134.783,11.799-135.697l-2.482,0.207c0.075,0.908,7.335,91.273-11.599,134.491
			c-14.773,33.722-49.799,50.269-120.897,57.113L511.031,1545.227z"/>
		<path style="fill:#10325B;" d="M607.166,1346.113c29.266,14.024,78.047,24.425,112.279,12.997c0,0.001,3.567-2.776,2.577-10.084
			c-16.72-51.76,23.568-57.599-2.969-99.587c-5.826-9.157-16.839-28.728-21.445-37.275c-4.311,10.325-16.95,0.554-22.055-5.36
			c-3.754,0.175-44.56,3.602-60.924,90.809C612.98,1306.46,590.396,1332.462,607.166,1346.113z"/>
		<path style="fill:#1D3F70;" d="M692.292,1363.817c6.636-0.374,13.359-1.258,20.026-2.801c0.554-3.305,0.685-7.489-0.43-12.201
			c-2.758-11.635-0.859-42.909,6.767-59.523c7.632-16.608,2.546-30.751-2.857-37.468c-5.353-6.655-19.889-36.042-20.156-36.59
			c-0.822,0.66-1.917,1.208-3.318,1.382c1.805,7.763,6.848,28.13,13.751,44.602c8.709,20.797-10.302,22.117-7.632,62.486
			C700.073,1348.391,695.827,1359.167,692.292,1363.817z"/>
		<path style="fill:#1D3F70;" d="M647.64,1359.702c8.018,1.799,16.832,3.249,26.051,3.922c3.685-12.717-2.029-29.525,3.492-44.054
			c6.53-17.162,13.819-31.467,9.487-50.939c-3.48-15.625-0.473-42.678,0.853-52.744c-1.264-0.479-2.664-1.208-4.202-2.247
			c-12.419,24.445-13.278,49.252-12.686,69.377c0.61,20.978-14.28,27.657-17.461,53.46
			C651.792,1347.657,649.638,1354.983,647.64,1359.702z"/>
		<path style="fill:#1D3F70;" d="M627.988,1354.28c-0.081-5.285,0.373-13.315,2.938-21.818c4.445-14.772,20.661-28.149,21.93-61.521
			c1.089-28.716,19.31-55.489,24.383-62.411c-0.548-0.535-1.108-1.114-1.687-1.724c0,0-0.075,0-0.218,0.006h-0.006
			c-8.211,5.397-29.581,21.352-32.644,43.014c-3.803,26.911-7.632,37.325-22.665,58.62c-10.663,15.108-12.55,30.216-12.743,37.723
			C608.286,1346.654,616.061,1350.371,627.988,1354.28z"/>
		<path style="fill:#1D3F70;" d="M566.08,1214.357c15.955,19.291,58.789,17.335,72.603,3.192c13.956-14.292,31.953-13.9,31.953-13.9
			c-4.625-2.459-12.581-5.652-24.184-6.816c-12.338,2.708-22.796,9.804-39.173,9.972c-14.199,0.143-21.644-9.419-25.404-17.331
			C576.009,1195.811,569.787,1203.125,566.08,1214.357z"/>
		<path style="fill:#1D3F70;" d="M728.378,1251.824c3.417,26.107,14.46,23.337,8.092,47.446
			c-2.727,10.321-2.764,18.625-1.911,24.744c6.729-7.931,14.983-14.473,20.144-18.214c-2.913-3.262-5.677-9.313-6.959-20.38
			c-0.647-5.602-1.139-11.547-1.83-17.56c-2.409-4.382-5.135-9.624-8.186-16.036c-7.376-15.5-16.347-25.105-23.935-30.969
			C720.049,1228.262,726.678,1238.882,728.378,1251.824z"/>
		<path style="fill:#C16256;" d="M713.792,1155.013c-0.167,0-0.335-0.055-0.475-0.169c-0.125-0.101-2.876-2.276-5.007-0.149
			c-0.294,0.294-0.77,0.294-1.063,0c-0.294-0.293-0.294-0.77,0-1.063c2.479-2.479,5.677-1.055,7.022,0.047
			c0.321,0.263,0.368,0.736,0.105,1.057C714.226,1154.919,714.01,1155.013,713.792,1155.013z"/>
		<path style="fill:#C16256;" d="M693.588,1159.767c-0.104,0-0.21-0.022-0.311-0.068c-0.378-0.172-0.545-0.618-0.373-0.996
			c2.966-6.517,8.886-4.381,8.947-4.359c0.389,0.146,0.586,0.58,0.44,0.968c-0.146,0.388-0.58,0.584-0.967,0.441
			c-0.205-0.077-4.68-1.634-7.052,3.573C694.147,1159.603,693.874,1159.767,693.588,1159.767z"/>
		<path style="fill:#C16256;" d="M705.043,1182.368c-0.81,0-1.656-0.235-2.427-0.68c-0.919-0.53-1.633-1.304-2.011-2.177
			c-0.406-0.939-0.384-1.884,0.065-2.66c0.885-1.534,3.2-1.863,5.162-0.732c0.919,0.53,1.634,1.304,2.011,2.178
			c0.406,0.939,0.383,1.883-0.064,2.658l0,0c-0.448,0.776-1.254,1.268-2.271,1.386
			C705.355,1182.359,705.2,1182.368,705.043,1182.368z M703.401,1176.735c-0.712,0-1.323,0.26-1.613,0.762
			c-0.239,0.414-0.238,0.947,0.002,1.502c0.268,0.62,0.791,1.178,1.472,1.571s1.424,0.567,2.097,0.489
			c0.6-0.07,1.062-0.335,1.3-0.748c0-0.001,0-0.001,0-0.001c0.238-0.413,0.237-0.946-0.003-1.5c-0.268-0.62-0.791-1.179-1.472-1.572
			C704.6,1176.9,703.968,1176.735,703.401,1176.735z"/>
		<path style="fill:#F9B233;" d="M667.949,1051.196c-3.089,26.545-6.221,53.625-9.298,80.164
			c13.172,3.374,29.694,3.737,48.386-8.107C694.093,1099.41,680.875,1075.036,667.949,1051.196z"/>
		<path style="fill:#F7A521;" d="M667.949,1051.196l-1.138,9.776l-0.565,4.841l-0.779,6.716l-0.001,0.006l-0.567,4.936l-0.87,7.49
			l-0.584,5.042l-0.91,7.859l-0.618,5.297l-0.947,8.216l-0.645,5.509l-0.633,5.473l-0.04,0.375l-0.628,5.398l-0.372,3.23
			c0,0,3.413,1.146,8.98,1.705l0.053-14.606l0.025-6.129l0.017-4.801l0.031-7.655l0.018-4.763l0.026-7.223l0.02-4.654l0.032-7.095
			l0.015-4.623l0.026-6.377l0.016-4.591L667.949,1051.196z"/>
		<path style="fill:#F39200;" d="M660.968,1111.374l-0.641,5.508c10.091-7.36,25.886-12.733,35.276-14.7l-2.102-3.878
			C684.618,1100.249,670.611,1105.071,660.968,1111.374z"/>
		<path style="fill:#F39200;" d="M659.649,1122.732l-0.624,5.395c16.339-10.821,36.608-14.421,42.37-15.265l-2.139-3.943
			C692.15,1110.04,674.904,1113.545,659.649,1122.732z"/>
		<path style="fill:#F39200;" d="M662.534,1097.864l-0.613,5.294c8.423-5.331,19.802-9.472,27.958-11.527l-2.094-3.859
			C680.327,1089.716,670.321,1093.356,662.534,1097.864z"/>
		<path style="fill:#F39200;" d="M664.029,1084.96l-0.585,5.041c6.649-3.489,14.839-6.394,21.166-8.085l-2.088-3.849
			C676.913,1079.61,669.923,1082.091,664.029,1084.96z"/>
		<path style="fill:#F39200;" d="M665.47,1072.532c-0.001,0-0.569,4.939-0.57,4.941c4.613-2.187,9.813-4.125,14.321-5.494
			l-2.076-3.824C673.437,1069.315,669.269,1070.853,665.47,1072.532z"/>
		<path style="fill:#F39200;" d="M666.813,1060.972l-0.564,4.838c2.628-1.1,5.414-2.137,8.002-2.993l-2.074-3.815
			C670.426,1059.597,668.588,1060.274,666.813,1060.972z"/>
	</g>
	<g id="_x36_">
		<path style="fill:#3A72AA;" d="M1583.796,1309.337c-2.22,1.123-4.414,2.158-6.563,3.114c-6.537,2.901-12.729,5.068-18.611,6.59
			c-1.415,0.363-2.813,0.699-4.193,0.991c-68.498,14.533-91.832-40.078-88.834-62.431c0.425-3.167,1.371-5.272,2.769-5.9
			c0.044-0.018,4.219,1.345,7.97,0.823c3.671-0.504,6.908-2.884,6.908-2.884c1.999-0.522,3.971,1.486,6.183,4.892
			c10.942,16.824,28.367,46.986,83.465-3.432c5.237-4.794,9.491-7.837,12.817-9.765v-0.009c0.787-0.451,1.521-0.849,2.203-1.185
			c1.858-0.929,3.335-1.46,4.449-1.76c1.716-0.46,2.556-0.38,2.556-0.38c5.113,5.334,8.156,11.092,9.677,16.948
			c0.637,2.459,1.008,4.927,1.15,7.395C1607.033,1284.739,1589.537,1306.463,1583.796,1309.337z"/>
		<path style="fill:#A523A2;" d="M1491.396,1240.972c0,0,5.978-21.229,20.362-35.155c0,0-0.184,7.068,0.439,11.119
			c0,0,6.375-3.308,11.438-4.086c0,0-7.197,17.671-24.093,31.28L1491.396,1240.972z"/>
		<path style="fill:#A523A2;" d="M1496.774,1242.37c0,0,0.615-27.052-4.054-46.222c0,0-3.71,6.907-5.075,9.854l-8.751-8.198
			c0,0,3.88,22.049,8.248,44.728L1496.774,1242.37z"/>
		<path style="fill:#A523A2;" d="M1527.093,1236.846c0,0,8.685,3.459,8.295,10.75c-0.299,5.594-14.918,1.882-14.918,1.882
			s10.951,4.257,17.239,2.476c6.289-1.781,7.509-3.86,5.919-8.955c-1.59-5.094-4.746-13.791-10.534-12.607
			C1527.307,1231.575,1527.093,1236.846,1527.093,1236.846z"/>
		
			<rect x="1421.183" y="1269.313" transform="matrix(0.1254 -0.9921 0.9921 0.1254 -14.8962 2628.6833)" style="fill:#9358E0;" width="124.518" height="106.954"/>
		<polygon style="fill:#9F6EED;" points="1437.42,1260.429 1434.95,1279.975 1463.849,1257.56 1444.303,1255.09 		"/>
		<polygon style="fill:#9F6EED;" points="1432.926,1295.993 1430.456,1315.539 1499.413,1262.054 1479.867,1259.584 		"/>
		<polygon style="fill:#9F6EED;" points="1428.431,1331.557 1425.961,1351.103 1534.977,1266.549 1515.431,1264.079 		"/>
		
			<rect x="1484.748" y="1209.306" transform="matrix(0.1254 -0.9921 0.9921 0.1254 51.2696 2583.7209)" style="fill:#7640CC;" width="12.554" height="106.954"/>
		
			<rect x="1434.812" y="1249.666" transform="matrix(0.9921 0.1254 -0.1254 0.9921 169.3201 -177.118)" style="fill:#9F6EED;" width="113.98" height="13.931"/>
		<polygon style="fill:#9F6EED;" points="1447.408,1380.991 1466.954,1383.461 1536.493,1329.524 1538.963,1309.979 		"/>
		<polygon style="fill:#9F6EED;" points="1482.971,1385.485 1502.518,1387.955 1531.998,1365.09 1534.469,1345.544 		"/>
		<polygon style="fill:#9F6EED;" points="1518.534,1389.979 1528.691,1391.263 1529.974,1381.106 		"/>
		<polygon style="fill:#9F6EED;" points="1423.938,1367.117 1422.581,1377.853 1431.391,1378.967 1540.987,1293.962 
			1543.457,1274.416 		"/>
		
			<rect x="1474.134" y="1247.427" transform="matrix(0.9921 0.1254 -0.1254 0.9921 176.7275 -175.6943)" style="fill:#CE4ABF;" width="20.264" height="137.674"/>
		<path style="fill:#CE4ABF;" d="M1504.298,1251.189l-23.245-2.938l0,0c0.59-4.668,4.852-7.974,9.52-7.384l6.341,0.801
			C1501.582,1242.259,1504.888,1246.522,1504.298,1251.189L1504.298,1251.189z"/>
		<path style="fill:#CE4ABF;" d="M1524.103,1223.263c-17.996,0.988-30.359,18.006-30.359,18.006l8.984,9.722
			c27.328,3.453,36.856,4.658,41.761-0.331C1549.418,1245.646,1542.099,1222.275,1524.103,1223.263z M1539.847,1249.325
			c-6.043,2.652-20.768,0.784-33.647-3.929c0,0,18.418-11.652,30.433-8.494C1542.09,1238.336,1543.792,1247.594,1539.847,1249.325z"
			/>
		<path style="fill:#A523A2;" d="M1462.928,1228.737c0,0-9.272,1.19-10.708,8.348c-1.102,5.493,13.981,5.534,13.981,5.534
			s-11.666,1.399-17.313-1.89c-5.648-3.289-6.312-5.607-3.505-10.146c2.807-4.539,8.028-12.176,13.339-9.59
			C1464.033,1223.579,1462.928,1228.737,1462.928,1228.737z"/>
		<path style="fill:#CE4ABF;" d="M1442.644,1237.79c3.51,6.052,13.038,7.256,40.366,10.709l11.12-7.182
			c0,0-7.74-19.559-24.925-24.993C1452.02,1210.891,1439.116,1231.707,1442.644,1237.79z M1453.674,1226.418
			c12.424-0.07,27.364,15.798,27.364,15.798c-13.647,1.36-28.374-0.493-33.567-4.565
			C1444.081,1234.993,1448.032,1226.45,1453.674,1226.418z"/>
		<path style="fill:#F99370;" d="M1730.302,1648.851l-16.719-47.091l-33.145,14.205l29.034,41.745
			C1709.473,1657.71,1716.201,1667.095,1730.302,1648.851z"/>
		<path style="fill:#F99370;" d="M1604.181,1669.15l1.555-58.249l-38.311,7.096l14.123,50.791
			C1581.549,1668.787,1584.857,1681.729,1604.181,1669.15z"/>
		<path style="fill:#C92828;" d="M1600.89,1153.598c0,0-29.69-6.999-31.361,32.485c-1.41,33.326-6.005,48.604-6.005,48.604
			s39.236,5.219,54.436-2.866C1618.172,1231.709,1600.89,1153.598,1600.89,1153.598z"/>
		<path style="fill:#F99370;" d="M1594.858,1229.062l-0.134,9.28c2.828,10.891,16.914,6.963,23.065,0.333
			c0,0-0.766-6.921-0.718-10.125L1594.858,1229.062z"/>
		<path style="fill:#C92828;" d="M1605.328,1154.311c-32.26-8.002-42.643,38.639-24.911,58.336L1605.328,1154.311z"/>
		<path style="fill:#EB5648;" d="M1606.807,1684.385c-0.248,1.78-0.78,3.504-1.721,5.052l-54.583-0.873
			c-2.654-0.042-4.536-2.621-3.618-5.05c2.161-5.677,9.484-13.845,34.663-14.727c0,0,8.521,2.622,22.632,0.362
			C1604.181,1669.15,1607.824,1677.17,1606.807,1684.385z"/>
		<path style="fill:#CE3932;" d="M1546.919,1683.427l59.888,0.958c-0.248,1.78-0.78,3.504-1.721,5.052l-54.583-0.873
			C1547.813,1688.524,1545.925,1685.868,1546.919,1683.427z"/>
		<path style="fill:#EB5648;" d="M1738.889,1661.707c0.496,1.727,0.71,3.519,0.479,5.315l-50.234,21.367
			c-2.443,1.039-5.209-0.554-5.357-3.146c-0.33-6.066,3.045-16.503,25.696-27.534c0,0,8.852-1.064,20.829-8.859
			C1730.302,1648.851,1736.888,1654.7,1738.889,1661.707z"/>
		<path style="fill:#CE3932;" d="M1683.772,1685.151l55.117-23.444c0.496,1.727,0.71,3.519,0.479,5.315l-50.234,21.367
			C1686.658,1689.446,1683.854,1687.785,1683.772,1685.151z"/>
		<path style="fill:#E57D61;" d="M1618.853,1205.905c-0.048,0.383-0.111,0.77-0.195,1.145c-0.529-0.332-1.741,13.529-1.572,23.576
			c-9.593,4.412-20.305,2.792-22.286,2.42c0.396-16.103-3.102-31.717,8.622-38.549
			C1610.791,1191.281,1620.017,1197.719,1618.853,1205.905z"/>
		<path style="fill:#F99370;" d="M1632.318,1192.751c0.023,10.003-1.549,21.493-8.302,29.123l-0.013,0.002
			c-18.095,22.328-67.197,0.051-49.147-27.173c2.549-3.407,4.341-7.747,5.035-11.548
			C1585.354,1143.665,1633.564,1158.079,1632.318,1192.751z"/>
		<path style="fill:#C16256;" d="M1593.35,1192.88c-1.195-1.567,1.344-3.325,2.463-1.763
			C1597.008,1192.683,1594.469,1194.442,1593.35,1192.88z"/>
		<path style="fill:#C16256;" d="M1580.342,1192.842c-1.195-1.566,1.344-3.325,2.463-1.763
			C1584,1192.646,1581.461,1194.404,1580.342,1192.842z"/>
		<path style="fill:#C16256;" d="M1586.369,1204.947c-2.593,0.06-6.206-1.092-3.362-3.771c3.315-2.492,3.004-8.517,4.396-8.569
			c1.642,0.87-1.844,7.731-4.23,10.34c0.493,0.792,3.421,1.278,5.206,0.385c0.283-0.142,0.623-0.026,0.765,0.256
			C1589.383,1204.836,1587.294,1204.793,1586.369,1204.947z"/>
		<path style="fill:#CE4ABF;" d="M1536.696,1554.386c-0.084,17.63-0.639,55.405,0.404,78.271c0.228,5.026,0.535,9.33,0.942,12.542
			c27.773,15.992,61.307,12.673,79.556,9.037c8.301-1.657,13.437-3.377,13.437-3.377c-0.991-4.009-1.945-8.305-2.858-12.843
			c-10.068-49.819-15.502-128.657-11.8-175.329c10.408,48.688,27.953,134.667,41.214,169.663l0.003,0
			c2.126,5.619,4.143,9.922,6.004,12.547c58.416,0.912,86.926-33.636,86.926-33.636c-2.352-4.801-4.611-9.657-6.781-14.541
			c0-0.004,0-0.004,0-0.004c-33.369-75.046-46.085-157.579-48.679-168.585c-4.941-20.089-19.958-45.358-26.856-55.674
			c-54.653,20.106-110.452,7.917-110.452,7.917C1543.272,1436.323,1536.676,1497.31,1536.696,1554.386z"/>
		<path style="fill:#F99370;" d="M1670.806,1374.367c0,0-61.252,27.525-113.048,6.007c0,0-3.596-3.373-1.303-11.12
			c13.463-28.889,2.976-44.982,0.979-62.179c-1.181-10.124,0.58-20.635,11.905-34.363c5.053-6.233,19.603-24.067,22.978-34.341
			c0,0,2.412-0.471,2.408-0.431c-0.141,0.688,0.821,1.88,3.344,4.089c0.991,0.867,2.225,1.957,4.149,2.401c0,0,0,0,0.004,0
			c2.976,0.684,7.609-0.171,15.569-5.753c2.177,0.357,4.258,0.828,6.247,1.41c17.821,5.171,28.45,18.912,34.887,36.005
			C1671.232,1308.778,1668.199,1353.71,1670.806,1374.367z"/>
		<path style="fill:#E57D61;" d="M1632.318,1192.751c0.023,10.003-1.549,21.493-8.302,29.123l-0.013,0.002
			c3.475-5.974,4.221-18.211,4.221-18.211l-2.935-4.917c-36.361-5.312-37.917-32.849-37.917-32.849
			C1606.061,1147.189,1633.504,1169.525,1632.318,1192.751z"/>
		<path style="fill:#23659B;" d="M1554.431,1320.028c7.099-1.508,14.694-3.977,22.802-7.579l-3.631-48.86
			c0,0-8.419,8.601-14.6,18.216C1552.973,1291.178,1548.87,1299.691,1554.431,1320.028z"/>
		<path style="fill:#F99370;" d="M1639.456,1196.636c-0.401,11.311-15.06,10.723-14.395-0.629
			C1625.462,1184.696,1640.121,1185.285,1639.456,1196.636z"/>
		<path style="fill:#C16256;" d="M1636.179,1199.506c-0.351,0.019-0.642-0.3-0.589-0.647c0.473-3.402,0.073-5.636-1.157-6.463
			c-1.89-1.417-4.145,1.094-5.323,0.301C1631.684,1187.877,1639.942,1192.702,1636.179,1199.506z"/>
		<path style="fill:#C16256;" d="M1630.73,1199.586c-1.996,0.427,2.007-7.947,5.72-6.296c0.071,0.309-0.122,0.614-0.429,0.683
			C1631.616,1195.144,1631.875,1199.323,1630.73,1199.586z"/>
		<path style="fill:#F4D4BE;" d="M1634.076,1202.726c0.293,1.62-2.317,2.03-2.559,0.412
			C1631.224,1201.518,1633.834,1201.108,1634.076,1202.726z"/>
		<path style="fill:#3A72AA;" d="M1671.595,1377.314c0,0-62.828,26.448-114.627,4.927c0,0-0.637-1.176-1.053-3.246
			c-0.46-2.291-0.663-5.67,0.54-9.739c4.829-10.367,6.395-19.106,6.324-26.837c-0.071-8.775-2.247-16.258-4.157-23.378
			c-1.097-4.095-2.114-8.076-2.583-12.109c-1.185-10.128,0.575-20.636,11.906-34.364c3.529-4.361,10.889-18.938,17.417-28.792
			c0.867-1.309,1.716-2.53,2.547-3.635c0.027-0.036,0.044-0.062,0.071-0.097c0,0,2.547-1.283,4.378-1.707v0.044
			c-0.035,4.467-1.919,17.673,4.149,18.734c2.99,0.522,5.608-0.451,8.085-2.167c1.247-0.858,2.45-1.901,3.653-3.043
			c4.768-4.511,9.438-10.464,15.798-11.817c2.715,0.725,5.263,1.663,7.651,2.786c27.942,13.1,34.7,51.825,37.053,85.959
			C1670.091,1348.398,1669.994,1366.461,1671.595,1377.314z"/>
		<path style="fill:#C92828;" d="M1590.642,1162.902c3.39-4.48,7.075-7.628,10.859-9.638c2.726-1.753,16.436-9.619,31.156-1.059
			c13.719,7.979,26.092,26.998,23.198,52.812c-1.137,10.14-7.477,18.952-16.692,23.333c-8.725,4.148-20.426,8.509-30.568,8.189
			c0,0,8.788-19.546,5.313-43.787C1591.917,1183.499,1590.642,1162.902,1590.642,1162.902z"/>
		<path style="fill:#C16256;" d="M1599.183,1190.169c0.098-0.004,0.196-0.039,0.277-0.107c0.199-0.164,0.228-0.459,0.064-0.658
			c-0.127-0.154-3.168-3.785-8.188-3.429c-0.258,0.018-0.453,0.241-0.435,0.499c0.018,0.258,0.223,0.467,0.499,0.435
			c4.53-0.297,7.373,3.057,7.402,3.091C1598.899,1190.118,1599.042,1190.176,1599.183,1190.169z"/>
		<path style="fill:#C16256;" d="M1578.579,1189.625c0.122-0.005,0.241-0.057,0.328-0.155c2.323-2.594,5.679-2.275,5.713-2.271
			c0.257,0.025,0.488-0.16,0.515-0.417c0.027-0.257-0.16-0.487-0.417-0.515c-0.157-0.016-3.869-0.368-6.508,2.578
			c-0.172,0.193-0.156,0.489,0.036,0.661C1578.341,1189.591,1578.461,1189.63,1578.579,1189.625z"/>
		<path style="fill:#A523A2;" d="M1606.665,1576.127c2.288,36.426,7.744,64.255,10.934,78.109
			c8.301-1.657,13.437-3.377,13.437-3.377c-11.86-48.041-18.699-137.249-14.658-188.172
			C1616.378,1462.687,1603.335,1523.097,1606.665,1576.127z"/>
		<path style="fill:#A523A2;" d="M1657.595,1632.349c2.126,5.619,4.143,9.922,6.004,12.547
			c58.416,0.912,86.926-33.636,86.926-33.636c-2.352-4.801-4.611-9.657-6.781-14.541
			C1743.388,1597.128,1717.222,1627.289,1657.595,1632.349z"/>
		<path style="fill:#A523A2;" d="M1537.101,1632.657c0.228,5.026,0.535,9.33,0.942,12.542c27.773,15.992,61.307,12.673,79.556,9.037
			c8.301-1.657,13.437-3.377,13.437-3.377c-0.991-4.009-1.945-8.305-2.858-12.843l-0.004,0
			C1628.174,1638.016,1590.267,1651.378,1537.101,1632.657z"/>
		<path style="fill:#F99370;" d="M1620.62,1275.632c4.984,12.909,9.06,25.301,4.58,38.375
			c-5.849,17.069-21.903,26.394-36.331,30.707c-23.202,6.937-46.935,1.075-61.825-7.898c-7.027-5.1-15.415,4.844-9.236,10.876
			c20.623,20.098,49.856,32.476,82.521,24.655c18.129-4.341,38.512-17.227,45.036-29.682c13.285-25.366,18.313-54.3,10.644-78.551
			C1648.751,1238.999,1611.537,1251.058,1620.62,1275.632z"/>
		<path style="fill:#3A72AA;" d="M1668.747,1328.833c-1.513,14.905-5.573,28.438-12.711,36.195
			c-22.998,24.988-69.392,23.237-100.121,13.967c-14.613-4.414-25.687-10.526-29.013-16.284c-1.654-2.848-2.273-5.555-1.619-7.828
			c0,0,6.652-4.113,8.836-13.949c0,0,3.37-3.573,10.048-1.627c1.026,0.292,2.123,0.716,3.291,1.3
			c2.777,1.389,8.527,1.964,15.32,1.813c14.843-0.318,34.656-4.078,39.238-10.243c9.942-13.348,11.587-33.975,10.296-54.947
			c-0.531-8.633,0.61-15.648,2.362-21.158c3.476-10.951,9.367-15.984,9.367-15.984s4.803-0.478,11.437,2.158h0.009
			c7.749,3.078,17.974,10.411,25.935,27.721C1667.942,1284.137,1670.87,1307.851,1668.747,1328.833z"/>
		<path style="fill:#23659B;" d="M1525.286,1354.883c-0.659,2.274-0.038,4.978,1.616,7.83c14.277-5.712,17.27-23.41,17.27-23.41
			c-6.68-1.943-10.047,1.629-10.047,1.629C1531.933,1350.772,1525.286,1354.883,1525.286,1354.883z"/>
		<path style="fill:#F99370;" d="M1518.727,1316.406c-2.871,1.691,1.506,7.419,1.038,10.422c-4.56-2.303-8.491-5.943-8.525-5.938
			c-3.789-5.07-7.297-10.336-10.568-15.762c-8.423-4.273,4.422,15.703,5.353,18.134c-0.024,0.021-0.047,0.043-0.071,0.063
			c-4.988-4.366-9.745-9.014-14.081-14.031c-9.709-2.788,9.284,16.358,10.874,18.321c-0.007,0.014-0.014,0.029-0.021,0.042
			c-5.385-3.314-10.369-7.287-14.867-11.738c-9.846-1.556,10.635,15.798,12.933,17.377c-0.005,0.025-0.011,0.049-0.016,0.073
			c-4.608-1.987-8.962-4.561-13.149-7.336c-9.455-0.216,10.497,12.374,12.713,13.542c1.099,1.434,9.104,6.145,19.875,9.579
			c3.53,1.125,9.031-7.649,8.296-11.213C1526.315,1333.364,1522.409,1315.396,1518.727,1316.406z"/>
		<path style="fill:#23659B;" d="M1565.438,1343.477c-1.567-0.042-2.548-0.12-2.736-0.136c-0.508-0.042-0.884-0.49-0.841-0.996
			c0.043-0.508,0.49-0.875,0.997-0.841c0.237,0.015,24.124,1.895,37.837-9.188c8.503-6.872,12.167-24.101,10.891-51.208
			c-0.035-0.75-0.064-1.375-0.081-1.858c-0.018-0.509,0.381-0.936,0.89-0.954c0.497,0,0.937,0.381,0.954,0.89
			c0.017,0.477,0.046,1.095,0.081,1.836c0.486,10.335,1.966,41.787-11.574,52.73
			C1590.225,1343.149,1572.273,1343.66,1565.438,1343.477z"/>
		<path style="fill:#23659B;" d="M1594.044,1386.874c-20.269-0.541-38.202-6.93-38.436-7.015c-0.478-0.173-0.726-0.702-0.553-1.182
			c0.174-0.478,0.703-0.725,1.181-0.553c0.299,0.109,30.344,10.803,56.295,5.441c25.867-5.349,42.159-14.338,54.156-46.462
			c0.178-0.476,0.705-0.72,1.188-0.541c0.476,0.178,0.719,0.709,0.541,1.187c-12.298,32.926-28.997,42.139-55.511,47.622
			C1606.694,1386.656,1600.258,1387.04,1594.044,1386.874z"/>
		<path style="fill:#C16256;" d="M1589.432,1210.427c-1.163,0-1.963-0.234-1.986-0.24c-0.34-0.104-0.532-0.466-0.429-0.807
			c0.105-0.34,0.463-0.532,0.805-0.428l0,0c0.204,0.061,5.056,1.445,7.727-3.851c0.16-0.318,0.551-0.448,0.866-0.286
			c0.319,0.16,0.447,0.548,0.286,0.866C1594.679,1209.696,1591.489,1210.427,1589.432,1210.427z"/>
		<path style="fill:#23659B;" d="M1635.48,1242.245c-1.229-0.044-2.503,0.195-3.786,0.628c-4.281,1.433-8.536,4.971-10.738,6.979
			c-1.088,0.991-3.273,3.512-6.28,6.218c-2.468,2.22-5.493,4.555-8.934,6.271c-3.361,1.672-7.121,2.751-11.136,2.521
			c-10.437-0.601-9.889-15.187-9.243-21.087c0.168-1.504,0.345-2.441,0.345-2.441v-0.009c0.787-0.451,1.521-0.849,2.203-1.185
			c0.027-0.036,0.044-0.062,0.071-0.097c0,0,2.547-1.283,4.378-1.707v0.044c-0.035,4.467-1.919,17.673,4.149,18.734
			c2.99,0.522,5.608-0.451,8.085-2.167c1.247-0.858,2.45-1.901,3.653-3.043c4.768-4.511,9.438-10.464,15.798-11.817
			C1624.043,1240.087,1628.846,1239.609,1635.48,1242.245z"/>
		<path style="fill:#F9B233;" d="M1646.217,1176.154c-1.066,0.059-2.153,0.05-3.244-0.01c-0.051-0.002-0.107-0.004-0.157-0.012
			c-2.308-0.127-4.672-0.512-7.036-1.088c-0.931-0.225-1.87-0.484-2.798-0.766c-15.751-4.767-30.813-17.098-31.995-20.761
			c17.827-19.305,38.677-41.913,56.433-61.134C1654.315,1115.603,1649.347,1152.734,1646.217,1176.154z"/>
		<path style="fill:#F39200;" d="M1647.836,1108.946c1.289,6.357-7.02,10.788-11.596,6.377l9.514-10.306
			C1646.819,1106.031,1647.578,1107.387,1647.836,1108.946z"/>
		<path style="fill:#F39200;" d="M1633.828,1129.23c1.571,8.29-11.094,11.363-13.563,3.402l8.359-9.056
			C1631.245,1124.24,1633.358,1126.396,1633.828,1129.23z"/>
		<path style="fill:#F39200;" d="M1623.607,1150.668c1.62,8.956-12.483,11.295-13.84,2.294
			C1608.147,1144.006,1622.25,1141.667,1623.607,1150.668z"/>
		<path style="fill:#F7A521;" d="M1646.217,1176.154c-3.475,0.045-6.951-0.185-10.437-1.11l21.64-82.661
			C1654.315,1115.603,1649.347,1152.734,1646.217,1176.154z"/>
		<path style="fill:#F39200;" d="M1653.537,1121.435l-1.808,13.513C1640.251,1135.686,1642.653,1117.714,1653.537,1121.435z"/>
		<path style="fill:#F39200;" d="M1647.327,1148.52c1.62,8.956-12.483,11.295-13.84,2.294
			C1631.867,1141.858,1645.97,1139.519,1647.327,1148.52z"/>
		<path style="fill:#F39200;" d="M1642.816,1176.131c-4.238-0.208-8.66-1.383-12.697-2.814
			C1628.445,1159.833,1649.396,1164.111,1642.816,1176.131z"/>
	</g>
	<g id="_x35_">
		<path style="fill:#F99370;" d="M1158.252,752.191c67.559-40.889,85.748-102.4,71.254-177.455
			c-2.172-10.517-18.088-8.274-17.315,2.4c0.224,59.603-27.425,105.178-86.523,126.57
			C1125.685,703.695,1127.096,766.494,1158.252,752.191z"/>
		<path style="fill:#F99370;" d="M1212.631,549.054c3.141-0.014,1.966,7.348,3.601,9.7c3.051-4.019,4.963-8.952,4.995-8.962
			c1.165-6.141,1.995-12.334,2.546-18.567c5.512-7.741,2.942,16.038,3.115,18.414c0.03,0.008,0.06,0.018,0.09,0.026
			c2.535-6.036,4.744-12.221,6.417-18.552c7.415-6.692-1.151,18.555-1.708,20.97c0.012,0.009,0.025,0.019,0.037,0.028
			c3.345-5.273,6.047-10.958,8.11-16.857c8.071-6.079-2.62,18.893-3.946,21.024c0.016,0.02,0.031,0.039,0.046,0.058
			c3.23-3.759,5.98-7.929,8.495-12.206c8.331-4.584-3.989,15.703-5.415,17.525c-0.354,1.749-4.797,11.669-8.904,16.318
			c-2.422,2.743-16.609,2.509-17.921-0.839c-2.527-6.451-2.294-13.263-1.916-14.88
			C1211.149,558.518,1209.242,550.729,1212.631,549.054z"/>
		<path style="fill:#1D3F70;" d="M1215.662,722.387l-0.009,0.009c-2.839,4.334-5.997,8.562-9.5,12.64
			c-11.145,13.109-23.086,29.986-39.326,37.451c-1.69,0.778-3.432,1.451-5.219,2.008c-8.385-3.954-37.486-32.675-37.354-75.247
			c37.823-12.684,79.245-36.381,87.799-113.477c0,0,11.304,4.131,19.566,1.415C1240.933,625.725,1243.746,679.566,1215.662,722.387z
			"/>
		<path style="fill:#163356;" d="M1232.998,593.699c-9.487,3.277-21.349-1.423-21.717-1.574c0.287-2.076,0.546-4.198,0.771-6.359
			c0,0,11.301,4.138,19.569,1.418C1231.621,587.185,1232.206,589.554,1232.998,593.699z"/>
		<path style="fill:#163356;" d="M1215.653,722.396c-2.839,4.334-5.997,8.562-9.5,12.64c-11.145,13.109-23.086,29.986-39.326,37.451
			l1.327-46.19C1168.153,726.296,1188.109,752.815,1215.653,722.396z"/>
		<path style="fill:#F99370;" d="M1090.782,750.953c-77.064-17.243-113.896-69.757-124.061-145.52
			c-1.29-10.661,14.511-13.604,17.178-3.24c19.176,55.976,49.974,95.292,112.767,96.66c-0.02-0.005-0.075-0.019-0.096-0.024
			C1130.644,702.769,1124.871,754.587,1090.782,750.953z"/>
		<path style="fill:#F99370;" d="M973.268,575.283c-2.981,0.987,0.477,7.591-0.324,10.342c-4.172-2.838-7.555-6.905-7.589-6.905
			c-3.06-5.45-5.82-11.056-8.327-16.789c-7.69-5.582,2.319,16.139,2.912,18.447c-0.026,0.017-0.052,0.036-0.077,0.053
			c-4.325-4.914-8.389-10.074-11.992-15.542c-9.161-3.982,7,17.222,8.298,19.334c-0.009,0.013-0.017,0.026-0.026,0.039
			c-4.85-3.933-9.222-8.462-13.057-13.396c-9.587-3.192,8.501,17.074,10.436,18.673c-0.008,0.023-0.017,0.047-0.025,0.07
			c-4.259-2.534-8.194-5.612-11.94-8.864c-9.357-1.692,8.783,13.615,10.715,14.888c0.892,1.545,6.294,6.808,14.741,11.916
			c3.131,1.894,17.147-1.77,16.885-5.356c-0.245-3.362-3.449-13.449-3.965-15.028C979.43,583.925,977.014,575.791,973.268,575.283z"
			/>
		<path style="fill:#1D3F70;" d="M1103.282,697.744l-31.286,46.288l-12.207,18.053c0,0-5.944-3.052-14.321-8.934
			c-7.483-5.254-16.912-12.782-25.766-22.396c-34.745-37.725-50.02-93.451-51.639-116.378c11.888,1.053,18.177-5.431,18.177-5.431
			c0.823,1.804,1.698,3.644,2.636,5.511v0.009C1013.457,666.122,1057.533,699.433,1103.282,697.744z"/>
		<path style="fill:#163356;" d="M988.875,614.455l0,0.006c-6.883,6.716-20.021,6.527-20.021,6.527
			c-0.589-4.193-0.786-6.614-0.786-6.614c11.884,1.054,18.173-5.432,18.173-5.432C987.058,610.75,987.943,612.589,988.875,614.455z"
			/>
		<path style="fill:#163356;" d="M1071.996,744.031l-12.207,18.053c0,0-5.944-3.052-14.321-8.934
			c7.881-19.274,22.715-32.684,22.715-32.684L1071.996,744.031z"/>
		<path style="fill:#F99370;" d="M946.233,1101.983c3.472,11.628-4.145,5.427,13.171,7.426c3.627,0.419,11.296,0.576,7.876-7.102
			c-2.633-8.741,1.292-32.401-0.222-41.381C960.183,1020.769,928.546,1042.746,946.233,1101.983z"/>
		<path style="fill:#3A72AA;" d="M927.971,1072.865c0.85,6.89,1.551,11.024,1.601,11.445c0,0,21.694,4.464,50.567,0
			c0.185-37.927-0.076-108.42,27.948-131.782c6.528-4.357,23.04-15.975,35.335-23.204c30.789-14.957,76.485-26.483,89.054-55.502
			c-16.591-6.865-51.286-21.223-68.036-28.155C928.109,860.53,915.03,983.203,927.971,1072.865z"/>
		<path style="fill:#23659B;" d="M981.129,1040.18c4.497-62.594,11.036-83.541,62.293-110.855l24.079-55.081
			C1002.658,894.319,947.57,960.793,981.129,1040.18z"/>
		<path style="fill:#F99370;" d="M1030.746,1139.924c5.296,10.294-2.455,12.45,11.348,8.398c9.098-3.383,12.101-4.198,9.302-12.481
			c-2.028-9.844-3.816-28.676-5.129-38.623C1043.202,1066.942,1002.124,1084.288,1030.746,1139.924z"/>
		<path style="fill:#3A72AA;" d="M981.872,1030.121c6.365,36.427,17.206,65.084,26.216,93.897c0,0,35.458,2.228,53.241-16.512
			c-7.619-28.266-20.995-83.227-6.462-124.239c5.81-15.043,20.944-38.635,66.477-51.978c56.731-16.636,48.13-68.16,48.13-68.16
			c-19.821-38.47-34.655-6.404-36.132-6.387c-9.787,0.149-20.275,1.774-31.019,4.605
			C1011.824,888.696,960.638,945.742,981.872,1030.121z"/>
		<path style="fill:#23659B;" d="M1020.976,1114.684c-49.032-143.993-24.139-190.428,91.436-241.41
			c0.939-0.356,0.316-2.011-0.682-1.509C998.227,921.054,966.484,972.709,1020.976,1114.684z"/>
		<path style="fill:#23659B;" d="M944.904,1076.907c-8.869-95.18-14.248-184.903,122.037-220.533
			c0.998-0.179,0.678-1.911-0.389-1.607C932.687,889.428,930.264,981.669,944.904,1076.907z"/>
		<path style="fill:#23659B;" d="M1004.688,1113.373c1.213,3.713,2.352,7.27,3.4,10.645c0,0,35.458,2.228,53.241-16.512
			c0,0-1.147-3.763-2.756-10.125C1058.572,1097.381,1038.933,1118.283,1004.688,1113.373z"/>
		<path style="fill:#23659B;" d="M927.971,1072.865c0.85,6.89,1.551,11.024,1.601,11.445c0,0,21.694,4.464,50.567,0
			c0-2.624-0.016-6.057,0-10.108l-0.008-0.008C980.13,1074.194,951.513,1080.242,927.971,1072.865z"/>
		<path style="fill:#EB5648;" d="M969.019,1116.736c-0.223,2.583-1.6,5.495-4.598,5.337c0,0-54.806-1.707-54.806-1.707
			c-2.832-0.084-4.753-2.982-3.664-5.594c2.314-5.909,11.655-15.92,39.714-14.743c3.734,0.157,8.523,1.519,20.851,0.236
			C966.516,1100.265,970.521,1107.01,969.019,1116.736z"/>
		<path style="fill:#E8C0A6;" d="M922.911,1113.365c0.146,0.004,0.295-0.018,0.441-0.072c0.603-0.224,0.911-0.892,0.688-1.496
			c-2.309-6.234-6.918-8.277-7.113-8.36c-0.594-0.251-1.276,0.019-1.53,0.608c-0.254,0.588,0.016,1.271,0.604,1.526l0,0
			c0.159,0.07,3.907,1.778,5.852,7.034C922.024,1113.063,922.451,1113.35,922.911,1113.365z"/>
		<path style="fill:#E8C0A6;" d="M931.995,1112.555c0.114,0.004,0.23-0.01,0.346-0.041c0.62-0.172,0.984-0.813,0.814-1.432
			c-1.933-6.996-7.745-10.312-7.991-10.449c-0.565-0.317-1.27-0.115-1.584,0.444c-0.316,0.559-0.117,1.268,0.443,1.585
			c0.053,0.028,5.219,3.005,6.884,9.039C931.047,1112.204,931.498,1112.54,931.995,1112.555z"/>
		<path style="fill:#E8C0A6;" d="M942.332,1111.612c0.127,0.004,0.257-0.014,0.385-0.053c0.614-0.192,0.954-0.845,0.762-1.459
			c-2.222-7.083-7.595-10.942-7.823-11.103c-0.523-0.371-1.249-0.248-1.622,0.276c-0.371,0.524-0.248,1.25,0.275,1.623
			c0.049,0.035,4.968,3.59,6.947,9.901C941.409,1111.282,941.85,1111.597,942.332,1111.612z"/>
		<path style="fill:#CE3932;" d="M905.951,1114.772l63.069,1.964c-0.292,1.915-0.882,3.767-1.9,5.421l-57.504-1.791
			c-2.793-0.087-4.709-2.898-3.701-5.501C905.926,1114.834,905.938,1114.803,905.951,1114.772z"/>
		<path style="fill:#EB5648;" d="M1057.409,1151.075c0.388,2.564-0.268,5.716-3.22,6.266c0,0-53.679,11.181-53.679,11.181
			c-2.773,0.582-5.319-1.786-4.873-4.58c0.865-6.287,5.959-18.291,35.233-23.67c3.676-0.676,8.563-0.487,20.247-4.622
			C1051.116,1135.649,1056.59,1141.268,1057.409,1151.075z"/>
		<path style="fill:#E8C0A6;" d="M1011.795,1158.6c0.143-0.03,0.283-0.086,0.412-0.173c0.534-0.359,0.676-1.08,0.319-1.616
			c-3.705-5.52-8.664-6.426-8.873-6.461c-0.636-0.105-1.236,0.317-1.345,0.95c-0.11,0.631,0.313,1.231,0.945,1.342l0,0
			c0.171,0.031,4.214,0.813,7.337,5.467C1010.862,1158.514,1011.344,1158.694,1011.795,1158.6z"/>
		<path style="fill:#E8C0A6;" d="M1020.436,1155.684c0.112-0.023,0.221-0.063,0.327-0.121c0.563-0.312,0.766-1.021,0.455-1.583
			c-3.518-6.348-9.946-8.211-10.216-8.286c-0.623-0.176-1.261,0.186-1.435,0.803c-0.176,0.617,0.184,1.26,0.802,1.437
			c0.058,0.015,5.778,1.699,8.81,7.175C1019.433,1155.565,1019.949,1155.786,1020.436,1155.684z"/>
		<path style="fill:#E8C0A6;" d="M1030.265,1152.346c0.125-0.026,0.246-0.074,0.362-0.142c0.552-0.33,0.73-1.045,0.399-1.597
			c-3.82-6.366-9.947-8.858-10.206-8.961c-0.595-0.238-1.272,0.052-1.512,0.648c-0.238,0.596,0.052,1.274,0.647,1.514
			c0.056,0.022,5.67,2.326,9.073,7.998C1029.29,1152.241,1029.793,1152.444,1030.265,1152.346z"/>
		<path style="fill:#CE3932;" d="M995.636,1163.941l61.772-12.866c0.165,1.931,0.025,3.868-0.577,5.715l-56.322,11.731
			c-2.736,0.57-5.257-1.714-4.887-4.481C995.627,1164.007,995.632,1163.974,995.636,1163.941z"/>
		<path style="fill:#F99370;" d="M1103.297,697.732c-0.48-11.383,2.479-27.581,4.534-34.136c3.8-13.013,24.419-6.376,19.99,6.365
			c-0.646-0.474-4.549,23.324-3.535,30.082C1143.555,707.372,1082.908,722.485,1103.297,697.732z"/>
		<path style="fill:#E57D61;" d="M1128.101,668.885c-0.036,0.15-0.065,0.307-0.107,0.458c-0.052,0.211-0.11,0.414-0.173,0.618
			c-0.465-0.358-2.789,12.76-3.496,22.352c-9.323,3.445-19.254,0.913-21.068,0.402c0.333-10.17,2.823-22.627,3.987-27.269
			c0.324-1.085,0.547-1.718,0.588-1.849c0.095-0.293,0.201-0.579,0.32-0.859c1.224-2.936,3.671-5.055,6.544-5.955
			c0.006,0,0.006,0,0.006,0c1.994-0.621,4.185-0.652,6.324,0.03c2.115,0.68,3.867,1.964,5.121,3.604
			c0.057,0.065,0.107,0.136,0.157,0.201C1127.987,662.938,1128.714,665.923,1128.101,668.885z"/>
		<path style="fill:#662948;" d="M1094.304,641.861c0,0,2.809-10.975,8.056-17.753l5.567,4.587L1094.304,641.861z"/>
		<path style="fill:#F99370;" d="M1086.457,674.06c5.68,9.389,16.729,14.299,26.445,14.505c3.022,0.109,6.007-0.248,8.813-1.188
			l0.004,0.001c0.949-0.317,1.865-0.693,2.759-1.134l0.011,0.004c43.593-27.046,9.6-96.365-24.225-50.966
			C1089.508,647.773,1074.866,652.357,1086.457,674.06z"/>
		<path style="fill:#F9F8F3;" d="M1095.251,663.282l13.7-3.34c0,0-0.849,6.831-6.114,7.492
			C1097.807,668.065,1095.251,663.282,1095.251,663.282z"/>
		<path style="fill:#C16256;" d="M1108.434,648.954c-0.189-0.778,0.289-1.56,1.068-1.748c0.778-0.188,1.562,0.29,1.751,1.068
			c0.189,0.778-0.289,1.56-1.068,1.748C1109.406,650.21,1108.623,649.732,1108.434,648.954z"/>
		<path style="fill:#C16256;" d="M1097.043,644.15c-0.189-0.778,0.289-1.56,1.068-1.748c0.778-0.188,1.562,0.29,1.751,1.068
			c0.189,0.778-0.289,1.56-1.068,1.748C1098.015,645.406,1097.231,644.928,1097.043,644.15z"/>
		<path style="fill:#C16256;" d="M1095.063,663.797c0.099,0.036,0.21,0.045,0.32,0.017l13.699-3.34
			c0.294-0.072,0.474-0.368,0.402-0.663c-0.073-0.294-0.372-0.475-0.664-0.402l-13.699,3.34c-0.294,0.072-0.474,0.368-0.402,0.663
			C1094.764,663.597,1094.898,663.737,1095.063,663.797z"/>
		<path style="fill:#C16256;" d="M1097.821,657.229c0.803,0.294,1.658,0.449,2.425,0.39c0.303-0.023,0.528-0.287,0.505-0.588
			c-0.022-0.304-0.292-0.526-0.589-0.504c-1.925,0.148-4.248-1.349-4.404-2.241c-0.055-0.314,0.395-0.505,0.783-0.609
			c3.415-0.92,6.802-6.162,6.944-6.384c0.163-0.255,0.089-0.594-0.167-0.758c-0.264-0.17-0.595-0.088-0.758,0.166
			c-0.033,0.05-3.3,5.107-6.306,5.916c-1.638,0.441-1.649,1.444-1.578,1.855C1094.862,655.542,1096.246,656.652,1097.821,657.229z"
			/>
		<path style="fill:#E57D61;" d="M1102.728,632.174c8.609-2.212,21.608,4.757,28.432,6.323c0,0-4.217,11.302,5.567,22.395
			c-1.553,10.945-0.903,16.039-15.013,26.485l0.004,0.001c0.949-0.317,1.865-0.693,2.759-1.134l0.011,0.004
			C1166.387,660.539,1135.979,592.417,1102.728,632.174z"/>
		<path style="fill:#1D3F70;" d="M1033.177,850.784c0,0,50.024,26.936,136.761,19.684c0,0,0.273-2.262,0.687-6.201
			c1.798-16.796,6.373-64.093,4.717-96.756c0,0-2.283-27.704-7.191-41.217c-14.897-41.015-43.894-27.047-43.894-27.047
			c-6.767,13.675-22.866,24.543-22.866,24.543c-2.757-14.291,1.677-25.391,1.889-26.047c-22.331,5.121-42.379,21.967-51.357,58.972
			c-4.212,17.331-19.462,59.266-21.108,81.253C1030.349,844.138,1030.955,848.743,1033.177,850.784z"/>
		<path style="fill:#163356;" d="M1095.636,697.702c0,0-4.355,20.604,3.455,33.049c0,0,23.959-8.061,32.613-34.143
			c0,0-3.7,0.001-7.448,2.642c0,0-10.999,15.263-21.823,22.556c0,0-2.559-8.997,0.851-24.064
			C1103.283,697.742,1099.271,696.636,1095.636,697.702z"/>
		<path style="fill:#C16256;" d="M1116.837,647.449c-0.246-0.018-0.474-0.167-0.582-0.408c-1.865-4.181-5.825-5.333-5.865-5.344
			c-0.368-0.103-0.583-0.484-0.481-0.851c0.102-0.368,0.483-0.584,0.849-0.482c0.188,0.051,4.622,1.317,6.761,6.114
			c0.155,0.349-0.001,0.758-0.35,0.913C1117.06,647.439,1116.946,647.457,1116.837,647.449z"/>
		<path style="fill:#C16256;" d="M1106.297,639.251c-0.122-0.009-0.243-0.05-0.35-0.126c-3.49-2.481-6.002-1.167-6.027-1.154
			c-0.335,0.182-0.755,0.059-0.938-0.278c-0.182-0.335-0.058-0.755,0.277-0.938c0.133-0.072,3.301-1.734,7.489,1.242
			c0.311,0.221,0.384,0.653,0.163,0.964C1106.766,639.166,1106.53,639.268,1106.297,639.251z"/>
		<path style="fill:#163356;" d="M1033.177,850.784c0,0,50.024,26.936,136.761,19.684c0,0,0.273-2.262,0.687-6.201l-1.151-1.141
			c0,0-100.321,4.211-138.66-25.159C1030.349,844.138,1030.955,848.743,1033.177,850.784z"/>
		<path style="fill:#F9B233;" d="M1176.299,567.166l-24.782,74.695c-18.192-2.464-37.097-24.426-37.454-28.552L1176.299,567.166z"/>
		<path style="fill:#F7A521;" d="M1176.299,567.166l-24.782,74.695c-5.121-1.225-9.638-2.987-13.596-5.049L1176.299,567.166z"/>
		<path style="fill:#F39200;" d="M1182.766,566.494c0.996,8.378-12.184,9.749-12.933,1.345
			C1168.837,559.463,1182.016,558.091,1182.766,566.494z"/>
		<path style="fill:#662948;" d="M1102.463,607.591c6.45-7.612,20.592-9.22,29.291,4.155c6.697,10.298,16.061,12.457,13.807,21.09
			c15.492,12.015,2.323,29.091,2.323,29.091l-8.459-3.1c-8.031-10.411-4.916-22.166-4.916-22.166l0.003-0.001
			c-2.243-0.418-4.556-1.069-6.498-2.089c-6.018-3.161-15.31-6.207-23.167-5.266C1096.99,630.245,1095.254,616.098,1102.463,607.591
			z"/>
		<path style="fill:#F99370;" d="M1147.455,669.237c-2.004,4.246-6.401,6.379-9.822,4.766c-3.42-1.614-4.568-6.363-2.564-10.609
			c2.004-4.246,6.401-6.379,9.822-4.766C1148.312,660.242,1149.46,664.992,1147.455,669.237z"/>
		<path style="fill:#C16256;" d="M1140.317,661.285c0.152-0.021,3.755-0.51,5.203,1.648c0.369,0.549,0.544,1.215,0.55,1.98
			c0,0.002,0,0.003,0,0.005c0,0.071,0.01,0.138,0.007,0.211c0,0.001,0,0.002,0,0.003c0,0-0.001,0.001,0,0.001
			c-0.053,1.409-0.686,3.159-1.9,5.238c-0.136,0.231-0.418,0.328-0.663,0.238c-0.03-0.011-0.059-0.025-0.088-0.041
			c-0.262-0.153-0.35-0.49-0.198-0.751c0.986-1.685,1.548-3.112,1.703-4.253c-3.208-0.181-5.57,2.897-5.594,2.931
			c-0.148,0.2-0.408,0.271-0.631,0.189c-0.047-0.017-0.093-0.043-0.137-0.075c-0.245-0.179-0.296-0.521-0.117-0.766
			c0.115-0.154,2.709-3.605,6.48-3.413c-0.056-0.333-0.154-0.633-0.32-0.883c-1.063-1.586-4.11-1.179-4.139-1.175
			c-0.304,0.04-0.577-0.169-0.62-0.468C1139.809,661.604,1140.018,661.328,1140.317,661.285z"/>
		<path style="fill:#FDFFDE;" d="M1133.288,668.979l5.175-2.734c0.04-0.217,0.1-0.433,0.202-0.64
			c0.602-1.22,2.081-1.721,3.303-1.119c1.222,0.602,1.725,2.08,1.122,3.3c-0.585,1.187-1.998,1.685-3.2,1.157l-5.172,2.733
			c-0.398,0.21-0.848,0.227-1.24,0.083c-0.343-0.126-0.641-0.372-0.824-0.719C1132.26,670.296,1132.543,669.372,1133.288,668.979z"
			/>
	</g>
	<g id="_x34_">
		<path style="fill:#1D3F70;" d="M635.179,951.875c-0.47,0-0.925-0.25-1.166-0.692c-0.351-0.643-0.113-1.449,0.53-1.8
			c0.469-0.256,46.91-25.907,46.495-53.356c-0.185-12.182-9.659-23.112-28.159-32.488c-28.315-14.349-44.742-30.982-50.219-50.848
			c-8.326-30.198,10.149-65.406,31.355-98.955c13.868-21.941,18.395-40.484,13.453-55.114c-5.219-15.453-19.573-20.94-19.717-20.994
			c-0.686-0.255-1.037-1.018-0.783-1.704c0.253-0.687,1.013-1.041,1.703-0.785c0.636,0.235,15.649,5.936,21.297,22.591
			c5.233,15.432,0.621,34.752-13.709,57.423c-20.88,33.034-39.092,67.628-31.04,96.832c5.268,19.105,21.251,35.194,48.862,49.187
			c19.45,9.857,29.413,21.571,29.612,34.817c0.437,29.048-45.905,54.648-47.878,55.723
			C635.612,951.823,635.393,951.875,635.179,951.875z"/>
		<g>
			<path style="fill:#9F6EED;" d="M710.537,557.588c-6.32,48.603-43.18,83.886-82.327,78.796
				c-22.446-2.919-40.769-18.476-51.131-40.384c-7.71-16.3-11.003-36.111-8.307-56.847c6.321-48.612,43.18-83.886,82.327-78.796
				c28.411,3.695,50.22,27.635,57.621,59.067C711.529,531.305,712.271,544.255,710.537,557.588z"/>
			<path style="fill:#9358E0;" d="M710.537,557.588c-6.32,48.603-43.18,83.886-82.327,78.796
				c-22.446-2.919-40.769-18.476-51.131-40.384c-2.808-11.881-3.55-24.831-1.816-38.163c6.321-48.612,43.18-83.886,82.327-78.796
				c22.446,2.919,40.77,18.476,51.131,40.384C711.529,531.305,712.271,544.255,710.537,557.588z"/>
			<polygon style="fill:#9358E0;" points="630.027,622.421 615.266,645.934 638.283,648.927 			"/>
		</g>
	</g>
	<g id="_x33_">
		<path style="fill:#1D3F70;" d="M1624.878,776.993c-0.288,0-0.577-0.093-0.821-0.285c-0.575-0.454-0.674-1.288-0.22-1.863
			c0.331-0.42,32.95-42.261,21.777-67.337c-4.958-11.128-17.966-17.454-38.662-18.803c-31.677-2.064-53.319-10.901-66.165-27.015
			c-19.527-24.494-16.379-64.131-10.068-103.315c4.127-25.626,0.999-44.455-9.295-55.965c-10.874-12.156-26.229-11.56-26.383-11.553
			c-0.714,0.049-1.354-0.528-1.39-1.259c-0.036-0.731,0.525-1.354,1.257-1.391c0.672-0.038,16.724-0.692,28.464,12.401
			c10.879,12.132,14.232,31.71,9.967,58.189c-6.213,38.582-9.361,77.551,9.523,101.239c12.353,15.496,33.374,24.007,64.263,26.02
			c21.759,1.418,35.525,8.273,40.914,20.374c11.82,26.538-20.727,68.293-22.119,70.057
			C1625.658,776.82,1625.27,776.993,1624.878,776.993z"/>
		<g>
			<path style="fill:#E063D7;" d="M1539.702,384.717c13.294,47.175-6.729,94.107-44.726,104.815
				c-21.786,6.139-44.75-0.963-62.889-17.033c-13.497-11.957-24.312-28.879-29.984-49.005
				c-13.296-47.183,6.729-94.107,44.726-104.815c27.576-7.771,57.04,5.669,76.201,31.662
				C1530.282,360.16,1536.055,371.776,1539.702,384.717z"/>
			<path style="fill:#CE4ABF;" d="M1539.702,384.717c13.294,47.175-6.729,94.107-44.726,104.815
				c-21.786,6.139-44.75-0.963-62.889-17.033c-7.252-9.821-13.025-21.436-16.672-34.377c-13.297-47.183,6.729-94.107,44.726-104.815
				c21.787-6.14,44.75,0.963,62.889,17.034C1530.282,360.16,1536.055,371.776,1539.702,384.717z"/>
			<polygon style="fill:#CE4ABF;" points="1491.157,475.979 1486.828,503.402 1509.169,497.106 			"/>
		</g>
	</g>
	<g id="_x32_">
		<path style="fill:#1D3F70;" d="M1810.368,1181.264c-0.488,0-0.958-0.27-1.189-0.737c-0.326-0.656-0.058-1.453,0.599-1.779
			c0.479-0.237,47.875-24.078,48.519-51.522c0.286-12.179-8.759-23.467-26.883-33.549c-27.74-15.432-43.513-32.686-48.219-52.749
			c-7.155-30.497,12.666-64.966,35.15-97.671c14.705-21.389,19.943-39.743,15.57-54.554c-4.619-15.643-18.75-21.68-18.892-21.739
			c-0.676-0.281-0.998-1.057-0.717-1.734c0.28-0.676,1.056-1,1.731-0.718c0.627,0.259,15.409,6.536,20.411,23.397
			c4.634,15.622-0.721,34.75-15.916,56.851c-22.139,32.203-41.672,66.068-34.754,95.563c4.526,19.294,19.876,35.988,46.927,51.036
			c19.055,10.6,28.558,22.69,28.246,35.933c-0.685,29.043-47.98,52.835-49.993,53.834
			C1810.767,1181.219,1810.566,1181.264,1810.368,1181.264z"/>
		<g>
			<path style="fill:#F9B233;" d="M1900.837,790.178c-8.191,48.323-46.386,82.157-85.307,75.56
				c-22.317-3.783-40.026-20.036-49.534-42.327c-7.075-16.585-9.601-36.509-6.106-57.125c8.193-48.331,46.386-82.157,85.307-75.56
				c28.247,4.788,49.116,29.552,55.298,61.247C1902.842,763.954,1903.084,776.923,1900.837,790.178z"/>
			<path style="fill:#F39200;" d="M1900.837,790.178c-8.191,48.323-46.386,82.157-85.307,75.56
				c-22.317-3.783-40.026-20.036-49.534-42.327c-2.347-11.98-2.589-24.949-0.342-38.205c8.193-48.331,46.386-82.157,85.307-75.56
				c22.317,3.783,40.026,20.036,49.534,42.327C1902.842,763.954,1903.084,776.923,1900.837,790.178z"/>
			<polygon style="fill:#F39200;" points="1817.884,851.856 1802.227,874.782 1825.111,878.661 			"/>
		</g>
	</g>
	<g id="_x31_">
		<path style="fill:#2FAC66;" d="M1695.432,220.188c-15.014,0.872-19.642-16.112-18.167-22.471l12.964,1.469l0.005-0.048
			c-0.536,4.707,1.534,9.398,7.481,7.808l2.044,12.885C1698.208,220.077,1696.767,220.188,1695.432,220.188z"/>
		<path style="fill:#F9B233;" d="M1095.045,224.114c-5.005-9.001-12.807-13.216-12.885-13.258l6.015-11.577
			c0.458,0.236,11.282,5.923,18.272,18.495L1095.045,224.114z"/>
		<path style="fill:#F9B233;" d="M502.103,862.734c-5.005-9.001-12.806-13.216-12.885-13.258l6.015-11.577
			c0.458,0.236,11.282,5.923,18.272,18.495L502.103,862.734z"/>
		<path style="fill:#F9B233;" d="M888.549,262.929c-5.005-9.001-12.807-13.217-12.885-13.258l6.015-11.577
			c0.458,0.236,11.282,5.923,18.272,18.495L888.549,262.929z"/>
		<path style="fill:#F9B233;" d="M1630.295,350.005c-5.014-9.017-12.774-13.201-12.851-13.24l5.982-11.595
			c0.457,0.236,11.281,5.924,18.271,18.495L1630.295,350.005z"/>
		<path style="fill:#7D44D8;" d="M425.779,636.868c-0.943-0.039-23.17-1.189-28.982-22.014l12.566-3.507
			c3.241,11.614,16.432,12.457,16.991,12.487L425.779,636.868z"/>
		<path style="fill:#7D44D8;" d="M368.252,875.838c-0.943-0.039-23.17-1.189-28.982-22.014l12.566-3.507
			c3.241,11.614,16.431,12.457,16.991,12.487L368.252,875.838z"/>
		
			<rect x="489.81" y="1001.71" transform="matrix(0.5767 -0.8169 0.8169 0.5767 -611.4462 836.314)" style="fill:#57175E;" width="23.102" height="13.046"/>
		
			<rect x="1248.816" y="230.79" transform="matrix(0.5767 -0.8169 0.8169 0.5767 339.5904 1130.0687)" style="fill:#57175E;" width="23.102" height="13.047"/>
		<path style="fill:#00A19A;" d="M1058.547,386.264l-3.333-12.614c8.353-1.23,10.343-10.31,8.327-15.513l12.381-4.112
			C1079.526,362.601,1076.934,382.367,1058.547,386.264z"/>
		<path style="fill:#7D44D8;" d="M1810.569,335.844l-11.58-6.01c0.433-0.839,10.84-20.513,32.17-17.02l-2.109,12.876
			C1817.151,323.734,1810.832,335.349,1810.569,335.844z"/>
		
			<rect x="1631.337" y="504.414" transform="matrix(0.7657 -0.6432 0.6432 0.7657 52.1795 1174.2573)" style="fill:#9B1960;" width="13.046" height="22.187"/>
		<path style="fill:#00A19A;" d="M1760.388,464.984c-6.717-0.316-12.429-1.885-19.363-10.803l10.551-7.673
			c3.919,7.314,13.577,5.85,17.475,2.145l8.315,10.053C1776.532,459.401,1769.545,464.984,1760.388,464.984z"/>
		<path style="fill:#00A19A;" d="M2096.381,604.096c-6.717-0.316-12.429-1.885-19.363-10.803l10.551-7.673
			c3.919,7.314,13.577,5.849,17.475,2.145l8.315,10.053C2112.525,598.512,2105.538,604.096,2096.381,604.096z"/>
		<path style="fill:#00A19A;" d="M1720.8,1071.645c-6.717-0.316-12.429-1.885-19.363-10.803l10.551-7.673
			c3.919,7.314,13.577,5.849,17.475,2.145l8.315,10.053C1736.945,1066.061,1729.957,1071.645,1720.8,1071.645z"/>
		<path style="fill:#00A19A;" d="M1903.588,460.906c-6.717-0.316-12.429-1.885-19.363-10.803l10.551-7.673
			c3.919,7.314,13.577,5.849,17.475,2.145l8.316,10.053C1919.733,455.323,1912.745,460.906,1903.588,460.906z"/>
		<path style="fill:#00A19A;" d="M1738.971,659.77c-6.717-0.316-12.429-1.885-19.363-10.803l10.551-7.673
			c3.919,7.314,13.577,5.85,17.474,2.145l8.316,10.053C1755.115,654.187,1748.128,659.77,1738.971,659.77z"/>
		<path style="fill:#00A19A;" d="M584.118,272.167c-6.717-0.316-12.429-1.885-19.363-10.803l10.551-7.673
			c3.919,7.314,13.577,5.85,17.475,2.145l8.315,10.053C600.263,266.583,593.275,272.167,584.118,272.167z"/>
		<path style="fill:#95C11F;" d="M1932.373,607.37c-18.004-5.109-20.267-20.749-20.354-21.412l12.934-1.707l-0.014-0.101
			c0.135,0.811,1.584,7.997,10.995,10.667L1932.373,607.37z"/>
		<path style="fill:#95C11F;" d="M1953.205,1338.301c-18.004-5.109-20.267-20.749-20.354-21.412l12.934-1.707l-0.014-0.1
			c0.134,0.811,1.584,7.997,10.995,10.667L1953.205,1338.301z"/>
		<path style="fill:#7EAFE0;" d="M1169.6,444.394l-6.869-11.091c5.884-3.644-1.026-15.215-1.098-15.331l11.069-6.906
			C1176.745,416.041,1183.445,437.098,1169.6,444.394z"/>
		<path style="fill:#7EAFE0;" d="M1318.393,350.714c-1.63-6.726-14.777-3.765-14.909-3.733l-3.114-12.67
			c5.988-2.29,28.083-2.098,30.703,13.331L1318.393,350.714z"/>
		<path style="fill:#F9B233;" d="M717.376,341.981c-5.014-9.017-12.774-13.201-12.851-13.241l5.982-11.594
			c0.458,0.236,11.281,5.924,18.271,18.495L717.376,341.981z"/>
		
			<rect x="755.305" y="453.34" transform="matrix(0.9033 -0.4289 0.4289 0.9033 -125.8075 371.714)" style="fill:#F9B233;" width="13.047" height="23.298"/>
		<path style="fill:#95C11F;" d="M834.622,631.938c-18.004-5.109-20.267-20.748-20.354-21.411l12.934-1.707l-0.014-0.1
			c0.134,0.81,1.584,7.996,10.995,10.667L834.622,631.938z"/>
		<path style="fill:#95C11F;" d="M1485.954,235.723c-18.004-5.109-20.267-20.748-20.354-21.411l12.934-1.707l-0.014-0.1
			c0.135,0.81,1.584,7.996,10.995,10.667L1485.954,235.723z"/>
		<path style="fill:#7EAFE0;" d="M905.831,418.722c-1.63-6.726-14.777-3.765-14.909-3.733l-3.114-12.67
			c5.988-2.29,28.084-2.098,30.703,13.331L905.831,418.722z"/>
		<path style="fill:#7EAFE0;" d="M419.24,422.377l9.747-8.672c4.601,5.17,14.813-3.625,14.914-3.714l8.705,9.718
			C451.583,420.627,435.923,433.759,419.24,422.377z"/>
		<path style="fill:#F9B233;" d="M1996.496,379.946c-0.782-10.288-6.08-17.334-6.134-17.402l10.284-8.029
			c0.317,0.405,7.769,10.1,8.858,24.442L1996.496,379.946z"/>
		<path style="fill:#F9B233;" d="M2103.433,977.152c-0.781-10.269-6.103-17.362-6.157-17.432l10.307-7.999
			c0.316,0.406,7.769,10.1,8.859,24.442L2103.433,977.152z"/>
		<path style="fill:#F9B233;" d="M393.371,1134.643c-0.781-10.269-6.103-17.362-6.157-17.432l10.307-7.999
			c0.316,0.406,7.768,10.1,8.859,24.442L393.371,1134.643z"/>
		<path style="fill:#7D44D8;" d="M1913.811,1182.462l-8.004-10.303c0.744-0.581,18.427-14.097,36.34-2.001l-7.302,10.812
			C1924.855,1174.216,1914.257,1182.122,1913.811,1182.462z"/>
		<path style="fill:#7D44D8;" d="M1934.642,998.033l-8.004-10.303c0.744-0.581,18.427-14.097,36.34-2.001l-7.302,10.812
			C1945.687,989.787,1935.088,997.693,1934.642,998.033z"/>
		<path style="fill:#95C11F;" d="M1978.789,840.289c-14.215-12.172-9.729-27.323-9.53-27.962l12.462,3.861l0.029-0.097
			c-0.217,0.792-1.906,7.926,5.525,14.289L1978.789,840.289z"/>
		<path style="fill:#95C11F;" d="M2077.952,1145.401c-14.215-12.172-9.728-27.324-9.53-27.963l12.462,3.861l0.029-0.097
			c-0.217,0.793-1.906,7.926,5.524,14.289L2077.952,1145.401z"/>
		<path style="fill:#7EAFE0;" d="M2122.944,784.626c-4.672-2.138-8.059-6.032-9.585-11.081l12.481-3.799
			c1.697,5.834,11.689,3.761,15.08,2.871l3.862,12.462C2143.469,785.485,2132.043,788.817,2122.944,784.626z"/>
	</g>
</g>
</svg>
